<svg width="66" height="66" viewBox="0 0 66 66" fill="none" xmlns="http://www.w3.org/2000/svg">
<path d="M33.0001 24.75V35.75M33.0001 46.75H33.0276M28.2976 10.615L5.00512 49.5C4.52488 50.3316 4.27078 51.2745 4.26809 52.2349C4.2654 53.1952 4.51422 54.1396 4.98979 54.9739C5.46536 55.8082 6.15111 56.5035 6.97881 56.9905C7.80652 57.4776 8.74732 57.7394 9.70762 57.75H56.2926C57.2529 57.7394 58.1937 57.4776 59.0214 56.9905C59.8491 56.5035 60.5349 55.8082 61.0104 54.9739C61.486 54.1396 61.7348 53.1952 61.7322 52.2349C61.7295 51.2745 61.4754 50.3316 60.9951 49.5L37.7026 10.615C37.2124 9.80675 36.5221 9.13853 35.6984 8.67478C34.8747 8.21104 33.9454 7.96741 33.0001 7.96741C32.0548 7.96741 31.1255 8.21104 30.3018 8.67478C29.4781 9.13853 28.7879 9.80675 28.2976 10.615Z" stroke="#2563EB" stroke-width="4" stroke-linecap="round" stroke-linejoin="round"/>
</svg>
