<svg width="219" height="65" viewBox="0 0 219 65" fill="none" xmlns="http://www.w3.org/2000/svg">
<rect x="0.5" y="0.5" width="218" height="64" rx="4.5" fill="white"/>
<rect x="0.5" y="0.5" width="218" height="64" rx="4.5" stroke="black"/>
<path d="M110.532 35.3457C106.716 35.3457 103.606 38.2528 103.606 42.2568C103.606 46.2364 106.716 49.1679 110.532 49.1679C114.349 49.1679 117.459 46.2364 117.459 42.2568C117.457 38.2528 114.347 35.3457 110.532 35.3457ZM110.532 46.4477C108.441 46.4477 106.638 44.7203 106.638 42.2584C106.638 39.7705 108.442 38.0692 110.532 38.0692C112.623 38.0692 114.425 39.7705 114.425 42.2584C114.425 44.7187 112.623 46.4477 110.532 46.4477ZM95.4223 35.3457C91.6069 35.3457 88.4971 38.2528 88.4971 42.2568C88.4971 46.2364 91.6069 49.1679 95.4223 49.1679C99.2394 49.1679 102.349 46.2364 102.349 42.2568C102.349 38.2528 99.2394 35.3457 95.4223 35.3457ZM95.4223 46.4477C93.3313 46.4477 91.529 44.7203 91.529 42.2584C91.529 39.7705 93.3329 38.0692 95.4223 38.0692C97.5134 38.0692 99.3157 39.7705 99.3157 42.2584C99.3173 44.7187 97.5134 46.4477 95.4223 46.4477ZM77.4514 37.4679V40.3994H84.4561C84.2468 42.0488 83.6985 43.2529 82.8615 44.0898C81.8427 45.1103 80.2481 46.2364 77.4514 46.2364C73.1395 46.2364 69.7685 42.754 69.7685 38.4348C69.7685 34.1155 73.1395 30.6332 77.4514 30.6332C79.7776 30.6332 81.4761 31.5497 82.7301 32.7278L84.7952 30.6592C83.0432 28.9838 80.7185 27.7017 77.4514 27.7017C71.5448 27.7017 66.5792 32.5182 66.5792 38.4348C66.5792 44.3514 71.5448 49.1679 77.4514 49.1679C80.639 49.1679 83.0448 48.1198 84.9249 46.1568C86.8586 44.2198 87.4605 41.4963 87.4605 39.2977C87.4605 38.6184 87.4086 37.9895 87.3031 37.4663H77.4514V37.4679ZM150.951 39.7445C150.377 38.2008 148.625 35.3457 145.044 35.3457C141.49 35.3457 138.536 38.1472 138.536 42.2568C138.536 46.1308 141.464 49.1679 145.384 49.1679C148.545 49.1679 150.375 47.2309 151.134 46.1048L148.782 44.5334C147.999 45.6855 146.926 46.4444 145.384 46.4444C143.842 46.4444 142.744 45.7375 142.039 44.3498L151.264 40.5278L150.951 39.7445ZM141.542 42.0488C141.464 39.3773 143.607 38.0172 145.15 38.0172C146.352 38.0172 147.371 38.62 147.711 39.4829L141.542 42.0488ZM134.043 48.7503H137.073V28.4362H134.043V48.7503ZM129.075 36.891H128.972C128.292 36.0785 126.984 35.3457 125.339 35.3457C121.889 35.3457 118.727 38.3828 118.727 42.2844C118.727 46.1584 121.889 49.1695 125.339 49.1695C126.986 49.1695 128.292 48.4367 128.972 47.5998H129.075V48.5943C129.075 51.2382 127.664 52.6519 125.391 52.6519C123.535 52.6519 122.385 51.3178 121.915 50.1917L119.275 51.2918C120.033 53.1232 122.045 55.3754 125.391 55.3754C128.946 55.3754 131.952 53.2808 131.952 48.175V35.7665H129.077V36.891H129.075ZM125.601 46.4477C123.509 46.4477 121.759 44.6927 121.759 42.2844C121.759 39.8485 123.509 38.0692 125.601 38.0692C127.664 38.0692 129.285 39.8485 129.285 42.2844C129.285 44.6927 127.664 46.4477 125.601 46.4477ZM165.152 28.4362H157.899V48.7503H160.924V41.0543H165.15C168.505 41.0543 171.805 38.6217 171.805 34.746C171.805 30.8704 168.507 28.4362 165.152 28.4362ZM165.23 38.2268H160.924V31.2637H165.23C167.493 31.2637 168.778 33.1405 168.778 34.746C168.778 36.319 167.493 38.2268 165.23 38.2268ZM183.937 35.3099C181.746 35.3099 179.476 36.2768 178.537 38.4202L181.223 39.543C181.798 38.4202 182.868 38.0529 183.989 38.0529C185.555 38.0529 187.146 38.9938 187.172 40.6659V40.8755C186.624 40.5619 185.449 40.0923 184.015 40.0923C181.119 40.0923 178.17 41.6864 178.17 44.665C178.17 47.3837 180.545 49.1338 183.206 49.1338C185.24 49.1338 186.362 48.2189 187.067 47.1464H187.17V48.7145H190.094V40.9259C190.095 37.3217 187.406 35.3099 183.937 35.3099ZM183.571 46.4428C182.581 46.4428 181.197 45.9455 181.197 44.717C181.197 43.1489 182.92 42.5477 184.408 42.5477C185.736 42.5477 186.364 42.8353 187.172 43.2269C186.937 45.1103 185.319 46.4428 183.571 46.4428ZM200.739 35.7535L197.269 44.561H197.165L193.564 35.7535H190.303L195.703 48.0629L192.624 54.9107H195.781L204.105 35.7535H200.739ZM173.476 48.7503H176.501V28.4362H173.476V48.7503Z" fill="black"/>
<path d="M72.4053 16.8232H70.0503L70.0376 15.6616H72.0942C72.4412 15.6616 72.7354 15.6108 72.9766 15.5093C73.222 15.4035 73.4082 15.2533 73.5352 15.0586C73.6621 14.8597 73.7256 14.6206 73.7256 14.3413C73.7256 14.0324 73.6663 13.7806 73.5479 13.5859C73.4294 13.3913 73.2474 13.2495 73.002 13.1606C72.7607 13.0718 72.4518 13.0273 72.0752 13.0273H70.5327V21H68.9395V11.7578H72.0752C72.583 11.7578 73.0358 11.8065 73.4336 11.9038C73.8356 12.0011 74.1763 12.1535 74.4556 12.3608C74.7391 12.564 74.9528 12.8221 75.0967 13.1353C75.2448 13.4484 75.3188 13.8208 75.3188 14.2524C75.3188 14.6333 75.2279 14.9824 75.0459 15.2998C74.8639 15.613 74.5952 15.869 74.2397 16.0679C73.8843 16.2668 73.4421 16.3853 72.9131 16.4233L72.4053 16.8232ZM72.3354 21H69.5488L70.2661 19.7368H72.3354C72.6951 19.7368 72.9956 19.6776 73.2368 19.5591C73.478 19.4364 73.6579 19.2692 73.7764 19.0576C73.8991 18.8418 73.9604 18.59 73.9604 18.3022C73.9604 18.0018 73.9076 17.7415 73.8018 17.5215C73.696 17.2972 73.5288 17.1258 73.3003 17.0073C73.0718 16.8846 72.7734 16.8232 72.4053 16.8232H70.6152L70.6279 15.6616H72.9575L73.3193 16.0996C73.8271 16.1165 74.244 16.2287 74.5698 16.436C74.8999 16.6434 75.1453 16.9121 75.3062 17.2422C75.467 17.5723 75.5474 17.9277 75.5474 18.3086C75.5474 18.8968 75.4183 19.3898 75.1602 19.7876C74.9062 20.1854 74.5402 20.488 74.062 20.6953C73.5838 20.8984 73.0083 21 72.3354 21ZM78.6387 14.1318V21H77.1025V14.1318H78.6387ZM77.001 12.3291C77.001 12.0964 77.0771 11.9038 77.2295 11.7515C77.3861 11.5949 77.6019 11.5166 77.877 11.5166C78.1478 11.5166 78.3615 11.5949 78.5181 11.7515C78.6746 11.9038 78.7529 12.0964 78.7529 12.3291C78.7529 12.5576 78.6746 12.748 78.5181 12.9004C78.3615 13.0527 78.1478 13.1289 77.877 13.1289C77.6019 13.1289 77.3861 13.0527 77.2295 12.9004C77.0771 12.748 77.001 12.5576 77.001 12.3291ZM83.3423 21.127C82.8345 21.127 82.3753 21.0444 81.9648 20.8794C81.5586 20.7101 81.2116 20.4753 80.9238 20.1748C80.6403 19.8743 80.4224 19.521 80.27 19.1147C80.1177 18.7085 80.0415 18.2705 80.0415 17.8008V17.5469C80.0415 17.0094 80.1198 16.5228 80.2764 16.0869C80.4329 15.651 80.6509 15.2786 80.9302 14.9697C81.2095 14.6566 81.5396 14.4175 81.9204 14.2524C82.3013 14.0874 82.7139 14.0049 83.1582 14.0049C83.6491 14.0049 84.0786 14.0874 84.4468 14.2524C84.8149 14.4175 85.1196 14.6502 85.3608 14.9507C85.6063 15.2469 85.7882 15.6003 85.9067 16.0107C86.0295 16.4212 86.0908 16.874 86.0908 17.3691V18.0229H80.7842V16.9248H84.5801V16.8042C84.5716 16.5291 84.5166 16.271 84.415 16.0298C84.3177 15.7886 84.1675 15.5939 83.9644 15.4458C83.7612 15.2977 83.4904 15.2236 83.1519 15.2236C82.8979 15.2236 82.6715 15.2786 82.4727 15.3887C82.278 15.4945 82.1151 15.6489 81.9839 15.8521C81.8527 16.0552 81.7511 16.3006 81.6792 16.5884C81.6115 16.8719 81.5776 17.1914 81.5776 17.5469V17.8008C81.5776 18.1012 81.6178 18.3805 81.6982 18.6387C81.7829 18.8926 81.9056 19.1147 82.0664 19.3052C82.2272 19.4956 82.4219 19.6458 82.6504 19.7559C82.8789 19.8617 83.1392 19.9146 83.4312 19.9146C83.7993 19.9146 84.1273 19.8405 84.415 19.6924C84.7028 19.5443 84.9525 19.3348 85.1641 19.064L85.9702 19.8447C85.8221 20.0605 85.6296 20.2679 85.3926 20.4668C85.1556 20.6615 84.8657 20.8201 84.5229 20.9429C84.1844 21.0656 83.7909 21.127 83.3423 21.127ZM88.8013 15.5981V21H87.2715V14.1318H88.7124L88.8013 15.5981ZM88.5283 17.312L88.0332 17.3057C88.0374 16.819 88.1051 16.3726 88.2363 15.9663C88.3717 15.5601 88.5579 15.2109 88.7949 14.9189C89.0361 14.627 89.3239 14.4027 89.6582 14.2461C89.9925 14.0853 90.3649 14.0049 90.7754 14.0049C91.1055 14.0049 91.4038 14.0514 91.6704 14.1445C91.9412 14.2334 92.1719 14.3794 92.3623 14.5825C92.557 14.7856 92.7051 15.0501 92.8066 15.376C92.9082 15.6976 92.959 16.0933 92.959 16.563V21H91.4229V16.5566C91.4229 16.2266 91.3742 15.9663 91.2769 15.7759C91.1838 15.5812 91.0462 15.4437 90.8643 15.3633C90.6865 15.2786 90.4644 15.2363 90.1978 15.2363C89.9354 15.2363 89.7005 15.2913 89.4932 15.4014C89.2858 15.5114 89.1102 15.6616 88.9663 15.8521C88.8267 16.0425 88.7188 16.2625 88.6426 16.5122C88.5664 16.7619 88.5283 17.0285 88.5283 17.312ZM97.6689 14.1318V15.249H93.7969V14.1318H97.6689ZM94.9141 12.4497H96.4438V19.1021C96.4438 19.3136 96.4735 19.4766 96.5327 19.5908C96.5962 19.7008 96.6829 19.7749 96.793 19.813C96.903 19.8511 97.0321 19.8701 97.1802 19.8701C97.286 19.8701 97.3875 19.8638 97.4849 19.8511C97.5822 19.8384 97.6605 19.8257 97.7197 19.813L97.7261 20.981C97.5991 21.019 97.451 21.0529 97.2817 21.0825C97.1167 21.1121 96.9263 21.127 96.7104 21.127C96.3592 21.127 96.0482 21.0656 95.7773 20.9429C95.5065 20.8159 95.2949 20.6107 95.1426 20.3271C94.9902 20.0436 94.9141 19.667 94.9141 19.1973V12.4497ZM98.4053 17.6421V17.4961C98.4053 17.001 98.4772 16.5418 98.6211 16.1187C98.765 15.6912 98.9723 15.321 99.2432 15.0078C99.5182 14.6904 99.8525 14.445 100.246 14.2715C100.644 14.0938 101.092 14.0049 101.592 14.0049C102.095 14.0049 102.544 14.0938 102.938 14.2715C103.335 14.445 103.672 14.6904 103.947 15.0078C104.222 15.321 104.431 15.6912 104.575 16.1187C104.719 16.5418 104.791 17.001 104.791 17.4961V17.6421C104.791 18.1372 104.719 18.5964 104.575 19.0195C104.431 19.4427 104.222 19.813 103.947 20.1304C103.672 20.4435 103.337 20.689 102.944 20.8667C102.55 21.0402 102.104 21.127 101.604 21.127C101.101 21.127 100.65 21.0402 100.252 20.8667C99.8589 20.689 99.5246 20.4435 99.2495 20.1304C98.9744 19.813 98.765 19.4427 98.6211 19.0195C98.4772 18.5964 98.4053 18.1372 98.4053 17.6421ZM99.9351 17.4961V17.6421C99.9351 17.951 99.9668 18.243 100.03 18.5181C100.094 18.7931 100.193 19.0343 100.329 19.2417C100.464 19.4491 100.638 19.612 100.849 19.7305C101.061 19.849 101.312 19.9082 101.604 19.9082C101.888 19.9082 102.133 19.849 102.341 19.7305C102.552 19.612 102.726 19.4491 102.861 19.2417C102.997 19.0343 103.096 18.7931 103.16 18.5181C103.227 18.243 103.261 17.951 103.261 17.6421V17.4961C103.261 17.1914 103.227 16.9036 103.16 16.6328C103.096 16.3577 102.995 16.1144 102.855 15.9028C102.72 15.6912 102.546 15.5262 102.334 15.4077C102.127 15.285 101.88 15.2236 101.592 15.2236C101.304 15.2236 101.054 15.285 100.843 15.4077C100.635 15.5262 100.464 15.6912 100.329 15.9028C100.193 16.1144 100.094 16.3577 100.03 16.6328C99.9668 16.9036 99.9351 17.1914 99.9351 17.4961ZM102.017 11.25L103.775 13.002V13.0718H102.538L101.566 12.0752L100.595 13.0718H99.3828V12.9893L101.116 11.25H102.017ZM109.222 14.1318V15.249H105.35V14.1318H109.222ZM106.467 12.4497H107.997V19.1021C107.997 19.3136 108.026 19.4766 108.085 19.5908C108.149 19.7008 108.236 19.7749 108.346 19.813C108.456 19.8511 108.585 19.8701 108.733 19.8701C108.839 19.8701 108.94 19.8638 109.038 19.8511C109.135 19.8384 109.213 19.8257 109.272 19.813L109.279 20.981C109.152 21.019 109.004 21.0529 108.834 21.0825C108.669 21.1121 108.479 21.127 108.263 21.127C107.912 21.127 107.601 21.0656 107.33 20.9429C107.059 20.8159 106.848 20.6107 106.695 20.3271C106.543 20.0436 106.467 19.667 106.467 19.1973V12.4497ZM117.493 19.1401C117.493 18.9878 117.455 18.8503 117.378 18.7275C117.302 18.6006 117.156 18.4863 116.94 18.3848C116.729 18.2832 116.416 18.1901 116.001 18.1055C115.637 18.0251 115.303 17.9299 114.998 17.8198C114.698 17.7056 114.439 17.568 114.224 17.4072C114.008 17.2464 113.841 17.056 113.722 16.8359C113.604 16.6159 113.544 16.362 113.544 16.0742C113.544 15.7949 113.606 15.5304 113.729 15.2808C113.851 15.0311 114.027 14.811 114.255 14.6206C114.484 14.4302 114.761 14.2799 115.087 14.1699C115.417 14.0599 115.785 14.0049 116.191 14.0049C116.767 14.0049 117.26 14.1022 117.67 14.2969C118.085 14.4873 118.403 14.7476 118.623 15.0776C118.843 15.4035 118.953 15.7716 118.953 16.1821H117.423C117.423 16.0002 117.376 15.8309 117.283 15.6743C117.194 15.5135 117.059 15.3844 116.877 15.2871C116.695 15.1855 116.466 15.1348 116.191 15.1348C115.929 15.1348 115.711 15.1771 115.538 15.2617C115.368 15.3421 115.241 15.4479 115.157 15.5791C115.076 15.7103 115.036 15.8542 115.036 16.0107C115.036 16.125 115.057 16.2287 115.1 16.3218C115.146 16.4106 115.222 16.4932 115.328 16.5693C115.434 16.6413 115.578 16.709 115.76 16.7725C115.946 16.8359 116.179 16.8973 116.458 16.9565C116.983 17.0666 117.433 17.2083 117.81 17.3818C118.191 17.5511 118.483 17.7712 118.686 18.042C118.889 18.3086 118.991 18.6471 118.991 19.0576C118.991 19.3623 118.925 19.6416 118.794 19.8955C118.667 20.1452 118.481 20.3631 118.235 20.5493C117.99 20.7313 117.696 20.873 117.353 20.9746C117.014 21.0762 116.634 21.127 116.21 21.127C115.588 21.127 115.062 21.0169 114.63 20.7969C114.198 20.5726 113.87 20.2869 113.646 19.9399C113.426 19.5887 113.316 19.2248 113.316 18.8481H114.795C114.812 19.1317 114.89 19.3581 115.03 19.5273C115.174 19.6924 115.351 19.813 115.563 19.8892C115.779 19.9611 116.001 19.9971 116.229 19.9971C116.505 19.9971 116.735 19.9611 116.921 19.8892C117.108 19.813 117.249 19.7114 117.347 19.5845C117.444 19.4533 117.493 19.3052 117.493 19.1401ZM124.462 19.3813V14.1318H125.999V21H124.551L124.462 19.3813ZM124.678 17.9531L125.192 17.9404C125.192 18.4017 125.142 18.827 125.04 19.2163C124.938 19.6014 124.782 19.9378 124.57 20.2256C124.359 20.5091 124.088 20.7313 123.758 20.8921C123.428 21.0487 123.032 21.127 122.571 21.127C122.236 21.127 121.93 21.0783 121.65 20.981C121.371 20.8836 121.13 20.7334 120.927 20.5303C120.728 20.3271 120.573 20.0627 120.463 19.7368C120.353 19.411 120.298 19.0216 120.298 18.5688V14.1318H121.828V18.5815C121.828 18.8312 121.858 19.0407 121.917 19.21C121.976 19.375 122.057 19.5083 122.158 19.6099C122.26 19.7114 122.378 19.7834 122.514 19.8257C122.649 19.868 122.793 19.8892 122.945 19.8892C123.381 19.8892 123.724 19.8045 123.974 19.6353C124.228 19.4618 124.407 19.229 124.513 18.937C124.623 18.645 124.678 18.3171 124.678 17.9531ZM129.103 15.4395V21H127.573V14.1318H129.033L129.103 15.4395ZM131.204 14.0874L131.191 15.5093C131.098 15.4924 130.996 15.4797 130.886 15.4712C130.78 15.4627 130.675 15.4585 130.569 15.4585C130.306 15.4585 130.076 15.4966 129.877 15.5728C129.678 15.6447 129.511 15.7505 129.375 15.8901C129.244 16.0256 129.143 16.1906 129.071 16.3853C128.999 16.5799 128.957 16.7979 128.944 17.0391L128.595 17.0645C128.595 16.6328 128.637 16.2329 128.722 15.8647C128.806 15.4966 128.933 15.1729 129.103 14.8936C129.276 14.6143 129.492 14.3963 129.75 14.2397C130.012 14.0832 130.315 14.0049 130.658 14.0049C130.751 14.0049 130.85 14.0133 130.956 14.0303C131.066 14.0472 131.149 14.0662 131.204 14.0874Z" fill="black"/>
<path d="M34.0678 32.5122L17.1559 50.4622C17.1566 50.4659 17.1579 50.469 17.1585 50.4727C17.6771 52.4217 19.4574 53.8569 21.5702 53.8569C22.4148 53.8569 23.2078 53.6286 23.8878 53.2277L23.9418 53.1961L42.9783 42.2113L34.0678 32.5122Z" fill="#EA4335"/>
<path d="M51.1773 29.4552L51.1611 29.444L42.9426 24.6797L33.6834 32.9189L42.9748 42.209L51.15 37.492C52.5833 36.7182 53.5563 35.2072 53.5563 33.4648C53.5563 31.735 52.5963 30.2315 51.1773 29.4552Z" fill="#FBBC04"/>
<path d="M17.1551 16.3937C17.0534 16.7686 17 17.1613 17 17.569V49.2874C17 49.6944 17.0528 50.0884 17.1557 50.4619L34.6497 32.9712L17.1551 16.3937Z" fill="#4285F4"/>
<path d="M34.1924 33.4282L42.946 24.6772L23.9311 13.6528C23.2399 13.2388 22.4333 12.9999 21.5701 12.9999C19.4573 12.9999 17.6746 14.4377 17.1558 16.3891C17.1552 16.391 17.1552 16.3923 17.1552 16.3941L34.1924 33.4282Z" fill="#34A853"/>
</svg>
