<svg width="172" height="51" viewBox="0 0 172 51" fill="none" xmlns="http://www.w3.org/2000/svg">
<rect x="0.5" y="0.5" width="171" height="50" rx="4.5" fill="black"/>
<rect x="0.5" y="0.5" width="171" height="50" rx="4.5" stroke="#A6A6A6"/>
<path d="M136.243 38.25H138.62V22.3105H136.243V38.25ZM157.656 28.0526L154.931 34.9629H154.849L152.021 28.0526H149.46L153.703 37.7107L151.283 43.0836H153.762L160.3 28.0526H157.656ZM144.172 36.4397C143.395 36.4397 142.308 36.0496 142.308 35.086C142.308 33.8557 143.662 33.3841 144.829 33.3841C145.873 33.3841 146.366 33.6093 147.001 33.9171C146.816 35.3938 145.546 36.4397 144.172 36.4397ZM144.46 27.7039C142.739 27.7039 140.957 28.4629 140.219 30.1443L142.329 31.0259C142.78 30.1443 143.62 29.8575 144.501 29.8575C145.731 29.8575 146.981 30.5951 147.001 31.9079V32.0718C146.57 31.8257 145.648 31.4567 144.522 31.4567C142.246 31.4567 139.931 32.7072 139.931 35.0451C139.931 37.1778 141.796 38.5518 143.886 38.5518C145.483 38.5518 146.366 37.8341 146.918 36.993H147.001V38.2241H149.297V32.1126C149.297 29.2827 147.184 27.7039 144.46 27.7039ZM129.768 29.9929H126.386V24.5294H129.768C131.545 24.5294 132.554 26.0016 132.554 27.2611C132.554 28.4963 131.545 29.9929 129.768 29.9929ZM129.707 22.3105H124.01V38.25H126.386V32.2112H129.707C132.341 32.2112 134.932 30.3027 134.932 27.2611C134.932 24.2201 132.341 22.3105 129.707 22.3105ZM98.6429 36.4426C97.0005 36.4426 95.6259 35.066 95.6259 33.1769C95.6259 31.266 97.0005 29.8698 98.6429 29.8698C100.264 29.8698 101.537 31.266 101.537 33.1769C101.537 35.066 100.264 36.4426 98.6429 36.4426ZM101.373 28.9451H101.291C100.757 28.3085 99.7303 27.7333 98.4379 27.7333C95.728 27.7333 93.2445 30.1164 93.2445 33.1769C93.2445 36.2165 95.728 38.5787 98.4379 38.5787C99.7303 38.5787 100.757 38.0034 101.291 37.3466H101.373V38.1265C101.373 40.2019 100.264 41.3105 98.4787 41.3105C97.0219 41.3105 96.1187 40.2631 95.7489 39.3801L93.6761 40.2427C94.2708 41.6801 95.8509 43.4471 98.4787 43.4471C101.271 43.4471 103.631 41.8036 103.631 37.7978V28.062H101.373V28.9451ZM105.274 38.25H107.654V22.3105H105.274V38.25ZM111.164 32.9917C111.102 30.8963 112.786 29.8285 113.997 29.8285C114.941 29.8285 115.741 30.3012 116.009 30.9786L111.164 32.9917ZM118.553 31.1837C118.101 29.9725 116.726 27.7333 113.914 27.7333C111.122 27.7333 108.803 29.9312 108.803 33.156C108.803 36.1961 111.102 38.5787 114.181 38.5787C116.664 38.5787 118.101 37.0592 118.697 36.1756L116.85 34.9429C116.234 35.8469 115.393 36.4426 114.181 36.4426C112.97 36.4426 112.108 35.8878 111.554 34.7991L118.799 31.8003L118.553 31.1837ZM60.8274 29.3972V31.6977H66.3282C66.164 32.9917 65.7329 33.9364 65.076 34.5938C64.2753 35.3947 63.0231 36.2782 60.8274 36.2782C57.4405 36.2782 54.7929 33.5464 54.7929 30.1572C54.7929 26.768 57.4405 24.0358 60.8274 24.0358C62.6543 24.0358 63.9881 24.7549 64.9735 25.6793L66.5955 24.0562C65.2199 22.7418 63.3934 21.7353 60.8274 21.7353C56.1878 21.7353 52.288 25.5149 52.288 30.1572C52.288 34.7991 56.1878 38.5787 60.8274 38.5787C63.3312 38.5787 65.2199 37.757 66.6975 36.2165C68.2165 34.6965 68.6888 32.5603 68.6888 30.8346C68.6888 30.3012 68.6474 29.8081 68.5653 29.3972H60.8274ZM74.9427 36.4426C73.3003 36.4426 71.8839 35.0869 71.8839 33.156C71.8839 31.2046 73.3003 29.8698 74.9427 29.8698C76.5845 29.8698 78.0009 31.2046 78.0009 33.156C78.0009 35.0869 76.5845 36.4426 74.9427 36.4426ZM74.9427 27.7333C71.9451 27.7333 69.5029 30.0133 69.5029 33.156C69.5029 36.2782 71.9451 38.5787 74.9427 38.5787C77.9392 38.5787 80.3819 36.2782 80.3819 33.156C80.3819 30.0133 77.9392 27.7333 74.9427 27.7333ZM86.8079 36.4426C85.1666 36.4426 83.7498 35.0869 83.7498 33.156C83.7498 31.2046 85.1666 29.8698 86.8079 29.8698C88.4503 29.8698 89.8662 31.2046 89.8662 33.156C89.8662 35.0869 88.4503 36.4426 86.8079 36.4426ZM86.8079 27.7333C83.8114 27.7333 81.3693 30.0133 81.3693 33.156C81.3693 36.2782 83.8114 38.5787 86.8079 38.5787C89.8056 38.5787 92.2477 36.2782 92.2477 33.156C92.2477 30.0133 89.8056 27.7333 86.8079 27.7333Z" fill="white"/>
<path d="M26.3919 24.7646L12.8274 39.1722C12.8279 39.1751 12.829 39.1776 12.8295 39.1806C13.2454 40.745 14.6733 41.897 16.3679 41.897C17.0454 41.897 17.6814 41.7137 18.2268 41.3919L18.2701 41.3665L33.5386 32.5497L26.3919 24.7646Z" fill="#EA4335"/>
<path d="M40.1151 22.3113L40.1021 22.3024L33.5103 18.4783L26.0838 25.0914L33.5361 32.5482L40.0931 28.762C41.2427 28.141 42.0231 26.9282 42.0231 25.5297C42.0231 24.1412 41.2532 22.9344 40.1151 22.3113Z" fill="#FBBC04"/>
<path d="M12.8269 11.8274C12.7454 12.1283 12.7025 12.4434 12.7025 12.7707V38.2294C12.7025 38.5561 12.7449 38.8724 12.8274 39.1722L26.8587 25.1333L12.8269 11.8274Z" fill="#4285F4"/>
<path d="M26.4919 25.4998L33.5128 18.4758L18.2616 9.62709C17.7073 9.29482 17.0603 9.10306 16.368 9.10306C14.6733 9.10306 13.2436 10.2571 12.8274 11.8234C12.8269 11.8249 12.8269 11.826 12.8269 11.8274L26.4919 25.4998Z" fill="#34A853"/>
<path d="M56.0664 12.1445H53.8926L53.8809 11.0723H55.7793C56.0996 11.0723 56.3711 11.0254 56.5938 10.9316C56.8203 10.834 56.9922 10.6953 57.1094 10.5156C57.2266 10.332 57.2852 10.1113 57.2852 9.85352C57.2852 9.56836 57.2305 9.33594 57.1211 9.15625C57.0117 8.97656 56.8438 8.8457 56.6172 8.76367C56.3945 8.68164 56.1094 8.64062 55.7617 8.64062H54.3379V16H52.8672V7.46875H55.7617C56.2305 7.46875 56.6484 7.51367 57.0156 7.60352C57.3867 7.69336 57.7012 7.83398 57.959 8.02539C58.2207 8.21289 58.418 8.45117 58.5508 8.74023C58.6875 9.0293 58.7559 9.37305 58.7559 9.77148C58.7559 10.123 58.6719 10.4453 58.5039 10.7383C58.3359 11.0273 58.0879 11.2637 57.7598 11.4473C57.4316 11.6309 57.0234 11.7402 56.5352 11.7754L56.0664 12.1445ZM56.002 16H53.4297L54.0918 14.834H56.002C56.334 14.834 56.6113 14.7793 56.834 14.6699C57.0566 14.5566 57.2227 14.4023 57.332 14.207C57.4453 14.0078 57.502 13.7754 57.502 13.5098C57.502 13.2324 57.4531 12.9922 57.3555 12.7891C57.2578 12.582 57.1035 12.4238 56.8926 12.3145C56.6816 12.2012 56.4062 12.1445 56.0664 12.1445H54.4141L54.4258 11.0723H56.5762L56.9102 11.4766C57.3789 11.4922 57.7637 11.5957 58.0645 11.7871C58.3691 11.9785 58.5957 12.2266 58.7441 12.5312C58.8926 12.8359 58.9668 13.1641 58.9668 13.5156C58.9668 14.0586 58.8477 14.5137 58.6094 14.8809C58.375 15.248 58.0371 15.5273 57.5957 15.7188C57.1543 15.9062 56.623 16 56.002 16ZM61.8203 9.66016V16H60.4023V9.66016H61.8203ZM60.3086 7.99609C60.3086 7.78125 60.3789 7.60352 60.5195 7.46289C60.6641 7.31836 60.8633 7.24609 61.1172 7.24609C61.3672 7.24609 61.5645 7.31836 61.709 7.46289C61.8535 7.60352 61.9258 7.78125 61.9258 7.99609C61.9258 8.20703 61.8535 8.38281 61.709 8.52344C61.5645 8.66406 61.3672 8.73438 61.1172 8.73438C60.8633 8.73438 60.6641 8.66406 60.5195 8.52344C60.3789 8.38281 60.3086 8.20703 60.3086 7.99609ZM66.1621 16.1172C65.6934 16.1172 65.2695 16.041 64.8906 15.8887C64.5156 15.7324 64.1953 15.5156 63.9297 15.2383C63.668 14.9609 63.4668 14.6348 63.3262 14.2598C63.1855 13.8848 63.1152 13.4805 63.1152 13.0469V12.8125C63.1152 12.3164 63.1875 11.8672 63.332 11.4648C63.4766 11.0625 63.6777 10.7188 63.9355 10.4336C64.1934 10.1445 64.498 9.92383 64.8496 9.77148C65.2012 9.61914 65.582 9.54297 65.9922 9.54297C66.4453 9.54297 66.8418 9.61914 67.1816 9.77148C67.5215 9.92383 67.8027 10.1387 68.0254 10.416C68.252 10.6895 68.4199 11.0156 68.5293 11.3945C68.6426 11.7734 68.6992 12.1914 68.6992 12.6484V13.252H63.8008V12.2383H67.3047V12.127C67.2969 11.873 67.2461 11.6348 67.1523 11.4121C67.0625 11.1895 66.9238 11.0098 66.7363 10.873C66.5488 10.7363 66.2988 10.668 65.9863 10.668C65.752 10.668 65.543 10.7188 65.3594 10.8203C65.1797 10.918 65.0293 11.0605 64.9082 11.248C64.7871 11.4355 64.6934 11.6621 64.627 11.9277C64.5645 12.1895 64.5332 12.4844 64.5332 12.8125V13.0469C64.5332 13.3242 64.5703 13.582 64.6445 13.8203C64.7227 14.0547 64.8359 14.2598 64.9844 14.4355C65.1328 14.6113 65.3125 14.75 65.5234 14.8516C65.7344 14.9492 65.9746 14.998 66.2441 14.998C66.584 14.998 66.8867 14.9297 67.1523 14.793C67.418 14.6562 67.6484 14.4629 67.8438 14.2129L68.5879 14.9336C68.4512 15.1328 68.2734 15.3242 68.0547 15.5078C67.8359 15.6875 67.5684 15.834 67.252 15.9473C66.9395 16.0605 66.5762 16.1172 66.1621 16.1172ZM71.2012 11.0137V16H69.7891V9.66016H71.1191L71.2012 11.0137ZM70.9492 12.5957L70.4922 12.5898C70.4961 12.1406 70.5586 11.7285 70.6797 11.3535C70.8047 10.9785 70.9766 10.6562 71.1953 10.3867C71.418 10.1172 71.6836 9.91016 71.9922 9.76562C72.3008 9.61719 72.6445 9.54297 73.0234 9.54297C73.3281 9.54297 73.6035 9.58594 73.8496 9.67188C74.0996 9.75391 74.3125 9.88867 74.4883 10.0762C74.668 10.2637 74.8047 10.5078 74.8984 10.8086C74.9922 11.1055 75.0391 11.4707 75.0391 11.9043V16H73.6211V11.8984C73.6211 11.5938 73.5762 11.3535 73.4863 11.1777C73.4004 10.998 73.2734 10.8711 73.1055 10.7969C72.9414 10.7188 72.7363 10.6797 72.4902 10.6797C72.248 10.6797 72.0312 10.7305 71.8398 10.832C71.6484 10.9336 71.4863 11.0723 71.3535 11.248C71.2246 11.4238 71.125 11.627 71.0547 11.8574C70.9844 12.0879 70.9492 12.334 70.9492 12.5957ZM79.3867 9.66016V10.6914H75.8125V9.66016H79.3867ZM76.8438 8.10742H78.2559V14.248C78.2559 14.4434 78.2832 14.5938 78.3379 14.6992C78.3965 14.8008 78.4766 14.8691 78.5781 14.9043C78.6797 14.9395 78.7988 14.957 78.9355 14.957C79.0332 14.957 79.127 14.9512 79.2168 14.9395C79.3066 14.9277 79.3789 14.916 79.4336 14.9043L79.4395 15.9824C79.3223 16.0176 79.1855 16.0488 79.0293 16.0762C78.877 16.1035 78.7012 16.1172 78.502 16.1172C78.1777 16.1172 77.8906 16.0605 77.6406 15.9473C77.3906 15.8301 77.1953 15.6406 77.0547 15.3789C76.9141 15.1172 76.8438 14.7695 76.8438 14.3359V8.10742ZM80.0664 12.9004V12.7656C80.0664 12.3086 80.1328 11.8848 80.2656 11.4941C80.3984 11.0996 80.5898 10.7578 80.8398 10.4688C81.0938 10.1758 81.4023 9.94922 81.7656 9.78906C82.1328 9.625 82.5469 9.54297 83.0078 9.54297C83.4727 9.54297 83.8867 9.625 84.25 9.78906C84.6172 9.94922 84.9277 10.1758 85.1816 10.4688C85.4355 10.7578 85.6289 11.0996 85.7617 11.4941C85.8945 11.8848 85.9609 12.3086 85.9609 12.7656V12.9004C85.9609 13.3574 85.8945 13.7812 85.7617 14.1719C85.6289 14.5625 85.4355 14.9043 85.1816 15.1973C84.9277 15.4863 84.6191 15.7129 84.2559 15.877C83.8926 16.0371 83.4805 16.1172 83.0195 16.1172C82.5547 16.1172 82.1387 16.0371 81.7715 15.877C81.4082 15.7129 81.0996 15.4863 80.8457 15.1973C80.5918 14.9043 80.3984 14.5625 80.2656 14.1719C80.1328 13.7812 80.0664 13.3574 80.0664 12.9004ZM81.4785 12.7656V12.9004C81.4785 13.1855 81.5078 13.4551 81.5664 13.709C81.625 13.9629 81.7168 14.1855 81.8418 14.377C81.9668 14.5684 82.127 14.7188 82.3223 14.8281C82.5176 14.9375 82.75 14.9922 83.0195 14.9922C83.2812 14.9922 83.5078 14.9375 83.6992 14.8281C83.8945 14.7188 84.0547 14.5684 84.1797 14.377C84.3047 14.1855 84.3965 13.9629 84.4551 13.709C84.5176 13.4551 84.5488 13.1855 84.5488 12.9004V12.7656C84.5488 12.4844 84.5176 12.2188 84.4551 11.9688C84.3965 11.7148 84.3027 11.4902 84.1738 11.2949C84.0488 11.0996 83.8887 10.9473 83.6934 10.8379C83.502 10.7246 83.2734 10.668 83.0078 10.668C82.7422 10.668 82.5117 10.7246 82.3164 10.8379C82.125 10.9473 81.9668 11.0996 81.8418 11.2949C81.7168 11.4902 81.625 11.7148 81.5664 11.9688C81.5078 12.2188 81.4785 12.4844 81.4785 12.7656ZM83.4004 7L85.0234 8.61719V8.68164H83.8809L82.9844 7.76172L82.0879 8.68164H80.9688V8.60547L82.5684 7H83.4004ZM90.0508 9.66016V10.6914H86.4766V9.66016H90.0508ZM87.5078 8.10742H88.9199V14.248C88.9199 14.4434 88.9473 14.5938 89.002 14.6992C89.0605 14.8008 89.1406 14.8691 89.2422 14.9043C89.3438 14.9395 89.4629 14.957 89.5996 14.957C89.6973 14.957 89.791 14.9512 89.8809 14.9395C89.9707 14.9277 90.043 14.916 90.0977 14.9043L90.1035 15.9824C89.9863 16.0176 89.8496 16.0488 89.6934 16.0762C89.541 16.1035 89.3652 16.1172 89.166 16.1172C88.8418 16.1172 88.5547 16.0605 88.3047 15.9473C88.0547 15.8301 87.8594 15.6406 87.7188 15.3789C87.5781 15.1172 87.5078 14.7695 87.5078 14.3359V8.10742ZM97.6855 14.2832C97.6855 14.1426 97.6504 14.0156 97.5801 13.9023C97.5098 13.7852 97.375 13.6797 97.1758 13.5859C96.9805 13.4922 96.6914 13.4062 96.3086 13.3281C95.9727 13.2539 95.6641 13.166 95.3828 13.0645C95.1055 12.959 94.8672 12.832 94.668 12.6836C94.4688 12.5352 94.3145 12.3594 94.2051 12.1562C94.0957 11.9531 94.041 11.7188 94.041 11.4531C94.041 11.1953 94.0977 10.9512 94.2109 10.7207C94.3242 10.4902 94.4863 10.2871 94.6973 10.1113C94.9082 9.93555 95.1641 9.79688 95.4648 9.69531C95.7695 9.59375 96.1094 9.54297 96.4844 9.54297C97.0156 9.54297 97.4707 9.63281 97.8496 9.8125C98.2324 9.98828 98.5254 10.2285 98.7285 10.5332C98.9316 10.834 99.0332 11.1738 99.0332 11.5527H97.6211C97.6211 11.3848 97.5781 11.2285 97.4922 11.084C97.4102 10.9355 97.2852 10.8164 97.1172 10.7266C96.9492 10.6328 96.7383 10.5859 96.4844 10.5859C96.2422 10.5859 96.041 10.625 95.8809 10.7031C95.7246 10.7773 95.6074 10.875 95.5293 10.9961C95.4551 11.1172 95.418 11.25 95.418 11.3945C95.418 11.5 95.4375 11.5957 95.4766 11.6816C95.5195 11.7637 95.5898 11.8398 95.6875 11.9102C95.7852 11.9766 95.918 12.0391 96.0859 12.0977C96.2578 12.1562 96.4727 12.2129 96.7305 12.2676C97.2148 12.3691 97.6309 12.5 97.9785 12.6602C98.3301 12.8164 98.5996 13.0195 98.7871 13.2695C98.9746 13.5156 99.0684 13.8281 99.0684 14.207C99.0684 14.4883 99.0078 14.7461 98.8867 14.9805C98.7695 15.2109 98.5977 15.4121 98.3711 15.584C98.1445 15.752 97.873 15.8828 97.5566 15.9766C97.2441 16.0703 96.8926 16.1172 96.502 16.1172C95.9277 16.1172 95.4414 16.0156 95.043 15.8125C94.6445 15.6055 94.3418 15.3418 94.1348 15.0215C93.9316 14.6973 93.8301 14.3613 93.8301 14.0137H95.1953C95.2109 14.2754 95.2832 14.4844 95.4121 14.6406C95.5449 14.793 95.709 14.9043 95.9043 14.9746C96.1035 15.041 96.3086 15.0742 96.5195 15.0742C96.7734 15.0742 96.9863 15.041 97.1582 14.9746C97.3301 14.9043 97.4609 14.8105 97.5508 14.6934C97.6406 14.5723 97.6855 14.4355 97.6855 14.2832ZM104.119 14.5059V9.66016H105.537V16H104.201L104.119 14.5059ZM104.318 13.1875L104.793 13.1758C104.793 13.6016 104.746 13.9941 104.652 14.3535C104.559 14.709 104.414 15.0195 104.219 15.2852C104.023 15.5469 103.773 15.752 103.469 15.9004C103.164 16.0449 102.799 16.1172 102.373 16.1172C102.064 16.1172 101.781 16.0723 101.523 15.9824C101.266 15.8926 101.043 15.7539 100.855 15.5664C100.672 15.3789 100.529 15.1348 100.428 14.834C100.326 14.5332 100.275 14.1738 100.275 13.7559V9.66016H101.688V13.7676C101.688 13.998 101.715 14.1914 101.77 14.3477C101.824 14.5 101.898 14.623 101.992 14.7168C102.086 14.8105 102.195 14.877 102.32 14.916C102.445 14.9551 102.578 14.9746 102.719 14.9746C103.121 14.9746 103.438 14.8965 103.668 14.7402C103.902 14.5801 104.068 14.3652 104.166 14.0957C104.268 13.8262 104.318 13.5234 104.318 13.1875ZM108.402 10.8672V16H106.99V9.66016H108.338L108.402 10.8672ZM110.342 9.61914L110.33 10.9316C110.244 10.916 110.15 10.9043 110.049 10.8965C109.951 10.8887 109.854 10.8848 109.756 10.8848C109.514 10.8848 109.301 10.9199 109.117 10.9902C108.934 11.0566 108.779 11.1543 108.654 11.2832C108.533 11.4082 108.439 11.5605 108.373 11.7402C108.307 11.9199 108.268 12.1211 108.256 12.3438L107.934 12.3672C107.934 11.9688 107.973 11.5996 108.051 11.2598C108.129 10.9199 108.246 10.6211 108.402 10.3633C108.562 10.1055 108.762 9.9043 109 9.75977C109.242 9.61523 109.521 9.54297 109.838 9.54297C109.924 9.54297 110.016 9.55078 110.113 9.56641C110.215 9.58203 110.291 9.59961 110.342 9.61914Z" fill="white"/>
</svg>
