<svg width="180" height="180" viewBox="0 0 180 180" fill="none" xmlns="http://www.w3.org/2000/svg">
<path d="M90.5668 105.53C89.0304 104.658 87.6032 103.608 86.3152 102.399C86.231 102.32 86.1258 102.267 86.0122 102.246C85.8985 102.225 85.7812 102.237 85.6744 102.281C84.2803 102.865 82.519 103.244 81.2167 104.098C81.094 104.175 81.0017 104.293 80.9551 104.43C80.9086 104.568 80.9107 104.717 80.9611 104.854C81.5507 106.632 82.0044 108.452 82.3183 110.3C81.4948 113.611 73.4614 138.92 71.2267 154.386C70.5067 159.282 74.6107 163.434 76.4017 167.839C76.4533 167.963 76.5345 168.072 76.6381 168.157C76.7417 168.242 76.8646 168.301 76.9961 168.327C77.1275 168.354 77.2634 168.348 77.392 168.31C77.5206 168.272 77.6379 168.203 77.7337 168.109C81.1895 164.524 84.3826 160.695 87.2881 156.65C87.3901 156.506 87.444 156.333 87.442 156.156C87.2683 142.214 87.82 124.971 86.2126 110.695C86.3026 110.615 90.0133 107.302 90.8494 106.496C90.9397 106.432 91.0078 106.341 91.0442 106.237C91.0805 106.132 91.0834 106.019 91.0523 105.912C91.0212 105.806 90.9577 105.712 90.8707 105.643C90.7837 105.575 90.6774 105.535 90.5668 105.53Z" fill="#38A1FF"/>
<path d="M44.791 21.5765C46.1203 16.6895 51.037 13.994 54.8584 15.9542C55.4477 16.2253 55.9518 16.652 56.3166 17.1884C56.6813 17.7247 56.8929 18.3504 56.9284 18.998C56.9313 19.8501 56.7549 20.6933 56.4107 21.4727C56.0665 22.2522 55.5621 22.9505 54.9304 23.5223C51.0298 27.6686 45.9898 29.1482 45.277 36.1052C45.1458 38.8974 45.4045 41.6942 46.0456 44.4149C46.0634 44.5731 46.1121 44.7262 46.189 44.8655C46.2659 45.0048 46.3694 45.1276 46.4938 45.2269C46.6181 45.3262 46.7608 45.4 46.9137 45.4441C47.0666 45.4883 47.2267 45.5019 47.3848 45.4841C47.543 45.4664 47.6961 45.4177 47.8354 45.3408C47.9747 45.2639 48.0975 45.1603 48.1968 45.036C48.2961 44.9116 48.3699 44.7689 48.414 44.616C48.4582 44.4632 48.4718 44.3031 48.454 44.1449C48.3055 40.7294 48.2164 35.2493 50.3494 32.5844C52.4194 29.996 56.4334 27.9854 58.8544 24.6428C61.8811 20.4632 61.2187 14.9912 56.5234 12.6413C54.9638 11.8742 53.2253 11.5443 51.493 11.687C49.7607 11.8296 48.0996 12.4394 46.6864 13.4513C45.5001 14.3813 44.5239 15.5517 43.8219 16.8856C43.1198 18.2196 42.7079 19.6869 42.613 21.1913C42.5624 21.4802 42.6286 21.7772 42.7971 22.0173C42.9655 22.2573 43.2224 22.4205 43.5112 22.4711C43.8001 22.5217 44.0971 22.4555 44.3372 22.2871C44.5772 22.1186 44.7404 21.8618 44.791 21.5729V21.5765Z" fill="#38A1FF"/>
<path d="M19.8899 59.7456C19.3679 56.3328 24.767 51.9876 27.1646 55.5156C28.3346 57.2337 27.5867 58.1787 26.6246 59.9013C25.424 62.055 24.9911 63.7992 25.9046 66.1797C26.5079 67.5021 27.1995 68.7823 27.9746 70.0119C28.0691 70.2241 28.2439 70.3901 28.4607 70.4734C28.6775 70.5567 28.9185 70.5504 29.1307 70.456C29.3429 70.3616 29.5089 70.1868 29.5922 69.97C29.6755 69.7532 29.6693 69.5122 29.5748 69.3C29.1905 68.157 28.6343 66.7719 28.268 65.4138C27.6227 63.0225 28.295 62.4141 29.4983 60.2523C30.7493 58.0023 30.8312 56.1123 29.3696 53.9892C25.1585 47.8638 15.9542 54.2466 18.3545 60.1704C18.4146 60.3697 18.5502 60.5376 18.7324 60.6383C18.9146 60.739 19.1289 60.7644 19.3296 60.7092C19.5303 60.654 19.7015 60.5224 19.8065 60.3427C19.9115 60.163 19.9421 59.9493 19.8917 59.7474L19.8899 59.7456Z" fill="#38A1FF"/>
<path d="M94.5817 25.0074C94.4089 26.1342 94.4917 26.1774 93.7366 30.1464C93.7293 30.2615 93.699 30.3739 93.6474 30.4771C93.5958 30.5802 93.5241 30.672 93.4364 30.7469C93.3488 30.8219 93.247 30.8785 93.137 30.9134C93.0271 30.9483 92.9113 30.9607 92.7965 30.9501C92.6817 30.9394 92.5701 30.9058 92.4685 30.8513C92.3669 30.7968 92.2772 30.7224 92.2049 30.6326C92.1325 30.5428 92.0789 30.4394 92.0472 30.3285C92.0155 30.2177 92.0064 30.1015 92.0203 29.9871C91.9272 27.9416 91.9527 25.8925 92.0968 23.85C92.1247 23.5756 92.2389 23.3173 92.4232 23.1121C92.6075 22.907 92.8521 22.7658 93.1219 22.7088C96.4519 21.9888 98.5822 17.775 94.5304 16.1874C93.0409 15.6042 91.8592 16.0137 91.2517 16.9587C90.8797 17.5808 90.6562 18.2803 90.5984 19.0028C90.5407 19.7253 90.6503 20.4515 90.9187 21.1248C90.9793 21.2141 91.021 21.3148 91.0412 21.4208C91.0615 21.5267 91.0599 21.6357 91.0365 21.7411C91.0131 21.8464 90.9685 21.9458 90.9053 22.0333C90.8421 22.1207 90.7617 22.1943 90.669 22.2496C90.5763 22.3049 90.4734 22.3406 90.3664 22.3547C90.2594 22.3687 90.1507 22.3607 90.0469 22.3313C89.9431 22.3018 89.8465 22.2514 89.7628 22.1832C89.6792 22.115 89.6104 22.0305 89.5606 21.9348C86.4106 17.7237 89.6686 11.4687 95.5006 13.6872C101.868 16.11 99.8341 23.2092 94.5817 25.0074Z" fill="#38A1FF"/>
<path d="M135.652 46.2276C134.746 49.9005 134.611 50.0076 133.27 54.207C133.238 54.3634 133.174 54.5118 133.084 54.6435C132.994 54.7753 132.878 54.8878 132.744 54.9746C132.61 55.0614 132.46 55.1207 132.303 55.1492C132.146 55.1776 131.985 55.1745 131.829 55.1401C131.673 55.1058 131.525 55.0408 131.395 54.949C131.264 54.8572 131.153 54.7403 131.068 54.6052C130.982 54.4701 130.925 54.3194 130.898 54.162C130.872 54.0045 130.877 53.8433 130.913 53.6877C131.254 50.5046 131.759 47.3412 132.424 44.2098C132.5 43.8425 132.689 43.5082 132.965 43.254C133.24 42.9998 133.589 42.8387 133.961 42.7932C134.972 42.6789 135.974 42.4927 136.958 42.2361C141.381 40.9977 143.034 36.4104 140.108 32.5386C137.568 29.1753 133.824 29.1348 130.938 31.8573C130.541 32.2164 130.188 32.6223 129.888 33.066C129.555 33.5509 129.264 34.0626 129.017 34.596C128.926 34.872 128.731 35.1017 128.474 35.2357C128.216 35.3698 127.916 35.3976 127.638 35.3132C127.36 35.2289 127.126 35.0391 126.986 34.7844C126.846 34.5298 126.812 34.2305 126.89 33.9507C127.163 32.4439 127.786 31.0224 128.709 29.8008C132.628 24.6969 139.174 25.1937 143.08 30.2877C146.36 34.5654 146.713 41.2083 140.416 44.7912C138.936 45.5739 137.318 46.0617 135.652 46.2276Z" fill="#38A1FF"/>
<path d="M149.152 58.6286C150.62 57.3186 152.49 56.5461 154.454 56.438C158.082 56.2391 160.346 58.7699 159.091 62.927C157.699 67.5503 152.694 65.2445 149.461 70.3016C148.662 71.5517 148.153 73.0016 147.463 74.285C147.352 74.486 147.321 74.722 147.379 74.9445C147.436 75.1671 147.576 75.3594 147.77 75.482C147.969 75.6007 148.207 75.6362 148.432 75.581C148.658 75.5258 148.852 75.3842 148.974 75.1868C149.769 74.06 150.511 72.8126 151.404 71.7056C152.854 69.9155 154.001 69.5717 156.271 68.7932C159.01 67.8536 160.742 66.7448 161.651 63.6956C164.601 53.7956 153.127 50.5781 147.971 57.563C147.834 57.7221 147.763 57.9272 147.773 58.1366C147.783 58.346 147.872 58.5438 148.022 58.6898C148.1 58.7611 148.191 58.8161 148.29 58.8517C148.389 58.8872 148.495 58.9026 148.6 58.8969C148.705 58.8912 148.808 58.8646 148.903 58.8185C148.998 58.7724 149.083 58.7079 149.152 58.6286Z" fill="#38A1FF"/>
<path d="M83.9762 90.5328C82.8894 89.7755 81.974 88.7982 81.2894 87.6644C80.6047 86.5305 80.166 85.2654 80.0018 83.9511C79.3799 80.1315 80.2988 76.0113 81.0296 72.4419C81.3616 70.78 81.8315 69.1486 82.4345 67.5648C82.4747 67.4473 82.5586 67.3499 82.6687 67.2927C82.7789 67.2356 82.9069 67.2231 83.026 67.2578C83.1452 67.2926 83.2464 67.372 83.3085 67.4794C83.3706 67.5869 83.389 67.7141 83.3597 67.8348C83.096 68.9319 82.8314 71.2548 82.5371 72.7371C81.2663 79.1181 79.9577 85.6908 85.0382 89.4627C85.652 89.8533 85.3559 90.9684 85.2434 93.5973C85.2489 93.6659 85.2406 93.7349 85.219 93.8003C85.1974 93.8657 85.1629 93.9261 85.1175 93.9778C85.0721 94.0296 85.0168 94.0718 84.9549 94.1019C84.8929 94.1319 84.8256 94.1492 84.7568 94.1528C84.688 94.1563 84.6193 94.146 84.5545 94.1225C84.4898 94.099 84.4305 94.0628 84.38 94.016C84.3295 93.9691 84.289 93.9126 84.2607 93.8498C84.2325 93.787 84.2171 93.7192 84.2156 93.6504C84.113 92.889 84.0788 91.2879 83.9762 90.5328ZM84.1472 90.6417C84.1814 90.6633 84.1814 90.6786 84.2156 90.6885L84.1472 90.6417ZM83.9762 90.5175V90.4734C83.9762 90.405 83.9762 90.306 83.942 90.315C83.8043 90.3429 83.8736 90.4329 83.9762 90.5175Z" fill="#191919"/>
<path d="M85.8951 81.215C85.8632 81.6616 85.9456 82.1088 86.1345 82.5146C86.2466 82.7317 86.3847 82.9342 86.5458 83.1176C88.2909 85.283 92.2347 83.8242 93.0555 81.144C93.1186 81.0215 93.1324 80.8796 93.0943 80.7473C93.0561 80.6149 92.9689 80.5022 92.8503 80.4321C92.7888 80.3988 92.7213 80.3781 92.6518 80.3711C92.5822 80.3641 92.5119 80.3709 92.445 80.3911C92.3781 80.4114 92.3158 80.4446 92.2618 80.489C92.2078 80.5334 92.1631 80.5881 92.1303 80.6498C91.8757 80.9298 91.5883 81.1782 91.2744 81.3896C90.6714 81.9772 89.9085 82.3739 89.0811 82.5299C88.7515 82.5674 88.4179 82.5138 88.1164 82.3752C87.815 82.2365 87.5573 82.018 87.3711 81.7433C87.253 81.6269 87.1496 81.4963 87.0633 81.3545C86.9949 81.2456 86.9265 81.1556 86.8572 81.0377C86.8466 80.9765 86.824 80.918 86.7906 80.8656C86.7572 80.8132 86.7138 80.7679 86.6629 80.7323C86.6119 80.6968 86.5544 80.6717 86.4937 80.6584C86.433 80.6452 86.3703 80.6441 86.3091 80.6552C86.1813 80.6772 86.0668 80.7476 85.9897 80.852C85.9125 80.9563 85.8787 81.0864 85.8951 81.215Z" fill="#191919"/>
<path d="M88.5671 71.0865C88.4223 71.705 88.3195 72.3325 88.2593 72.9648C88.0779 74.053 87.952 75.1497 87.8822 76.2507C87.8822 77.1246 87.7922 78.1794 88.3961 78.2685C88.9361 78.3414 89.2682 77.1768 89.3555 76.6737C89.5769 75.8484 89.8955 72.8235 90.0404 71.7237C90.1205 71.1234 90.26 69.6186 89.6291 69.5043C89.0927 69.39 88.7984 70.3215 88.5671 71.0865Z" fill="#191919"/>
<path d="M85.4044 67.806C85.6254 67.4791 85.9342 67.2214 86.2954 67.0626C87.1522 66.8007 87.4996 68.2326 88.2142 67.9365C88.7992 67.7043 88.3942 66.5865 88.2142 66.3165C87.2404 64.6065 84.6538 65.4921 84.103 67.059C83.9662 67.4289 83.7844 68.4585 84.3424 68.598C84.6781 68.697 85.3423 67.896 85.4044 67.806Z" fill="#191919"/>
<path d="M93.9707 67.4792C94.329 67.2042 94.7551 67.0313 95.2037 66.9788C95.4007 66.9706 95.5973 67.0043 95.7804 67.0776C95.9635 67.151 96.1289 67.2625 96.2657 67.4045C97.0415 68.0516 97.0541 68.2866 97.4654 68.1318C98.0567 67.9104 97.7003 66.851 97.4654 66.4505C97.2139 66.0728 96.8638 65.7711 96.453 65.5782C96.0423 65.3853 95.5866 65.3085 95.1353 65.3561C94.298 65.3933 93.5095 65.761 92.9429 66.3785C92.726 66.6341 92.2103 67.6521 92.6729 67.9707C92.9978 68.1624 93.878 67.5494 93.9707 67.4792Z" fill="#191919"/>
<path d="M4.5474 93.6458C5.5554 97.4357 10.0734 99.4823 13.8174 100.576C16.8774 101.476 19.1832 100.622 19.5045 103.556C19.508 103.625 19.5251 103.692 19.5548 103.755C19.5845 103.817 19.6261 103.873 19.6774 103.919C19.7287 103.965 19.7886 104.001 19.8536 104.024C19.9187 104.047 19.9877 104.057 20.0566 104.054C20.1256 104.05 20.1932 104.033 20.2556 104.004C20.3179 103.974 20.3738 103.932 20.4201 103.881C20.4663 103.83 20.502 103.77 20.5252 103.705C20.5483 103.64 20.5583 103.571 20.5548 103.502C20.6089 102.997 20.5596 102.486 20.4098 102C20.26 101.515 20.0129 101.065 19.6836 100.678C18.5829 99.4346 16.2537 99.611 14.2836 99.0287C10.9266 98.0324 7.1943 96.2783 5.4204 93.2597C5.39526 93.2008 5.35865 93.1475 5.31268 93.1028C5.26671 93.0582 5.21231 93.0232 5.15265 92.9998C5.093 92.9764 5.02929 92.9652 4.96524 92.9667C4.90118 92.9682 4.83808 92.9825 4.7796 93.0086C4.72119 93.0337 4.66853 93.0704 4.62486 93.1165C4.58119 93.1627 4.54744 93.2173 4.52568 93.277C4.50393 93.3367 4.49463 93.4002 4.49836 93.4637C4.5021 93.5271 4.51878 93.5891 4.5474 93.6458Z" fill="#191919"/>
<path d="M9.53992 92.5983C10.9209 94.3245 12.771 95.6152 14.8679 96.3153C15.4763 96.4746 16.7795 96.7239 16.892 96.1056C17.1152 95.2866 15.1208 95.0679 12.8699 93.5127C12.0876 92.9538 11.3587 92.3235 10.6928 91.6299C10.6136 91.5399 9.53902 90.36 9.07912 90.6399C8.58052 90.99 9.35092 92.3004 9.53992 92.5983Z" fill="#191919"/>
<path d="M15.3314 90.1007C16.4516 91.4964 17.8813 92.6121 19.5074 93.3596C19.9574 93.5198 21.1427 93.8447 21.3515 93.2903C21.4577 92.9168 21.3515 92.7638 20.1986 91.9961C19.5425 91.5587 18.8414 91.1816 18.2267 90.6902C16.8146 89.5688 15.5267 87.9092 14.9219 88.3745C14.4584 88.7273 15.1847 89.9099 15.3314 90.1007Z" fill="#191919"/>
<path d="M21.9408 90.1854C23.1432 91.1512 24.5284 91.8639 26.0133 92.2806C26.3454 92.3328 27.5505 92.4534 27.6531 91.881C27.8448 91.1718 26.2545 90.8469 24.7074 90.0423C23.8776 89.6103 21.7104 88.0299 21.1974 88.7481C20.9103 89.1558 21.7734 90.0387 21.9408 90.1854Z" fill="#191919"/>
<path d="M28.9088 87.4314C29.3093 88.209 30.4136 89.5986 30.2921 89.9757C30.0221 91.1691 27.5498 92.6586 27.0899 94.4964C26.6498 96.2244 27.9557 97.5078 29.6 98.1981C29.7195 98.269 29.8622 98.2899 29.997 98.2562C30.1319 98.2225 30.2479 98.1369 30.32 98.0181C30.3877 97.8978 30.4068 97.7562 30.3733 97.6223C30.3398 97.4884 30.2564 97.3724 30.14 97.2981C29.4947 96.7725 28.4246 95.6925 28.6289 94.8879C28.9529 93.6576 31.4657 92.1375 31.8563 90.3384C32.2334 88.5978 30.0482 87.2388 29.7044 86.8599C29.6286 86.7544 29.514 86.6834 29.3859 86.6623C29.2577 86.6413 29.1264 86.6721 29.0209 86.7479C28.9154 86.8237 28.8443 86.9383 28.8233 87.0664C28.8023 87.1946 28.833 87.3259 28.9088 87.4314Z" fill="#191919"/>
<path d="M33.3404 92.6855C34.0064 95.1308 33.9569 94.6655 34.1603 95.4089C34.8389 97.8938 34.5581 99.4589 34.2107 101.851C34.1306 102.404 34.109 102.965 34.0064 103.561C33.9666 103.694 33.9811 103.836 34.0467 103.958C34.1123 104.08 34.2235 104.171 34.356 104.21C34.4885 104.25 34.6313 104.236 34.7531 104.17C34.8749 104.105 34.9656 103.993 35.0054 103.861C35.2662 103.319 35.497 102.763 35.6966 102.196C36.6713 99.1268 36.3959 94.9058 34.1855 92.2283C34.1213 92.1159 34.0158 92.033 33.8915 91.997C33.7672 91.9611 33.6337 91.9749 33.5195 92.0357C33.4101 92.0987 33.3301 92.2023 33.2965 92.3239C33.263 92.4455 33.2788 92.5754 33.3404 92.6855Z" fill="#191919"/>
<path d="M142.927 99.54C145.82 93.8988 153.605 95.94 158.912 94.2579C159.044 94.2238 159.158 94.1395 159.229 94.023C159.3 93.9065 159.323 93.7669 159.293 93.6337C159.263 93.5005 159.183 93.3842 159.069 93.3094C158.954 93.2346 158.816 93.2071 158.682 93.2328C154.588 93.7791 143.392 92.3697 142.032 99.2223C142.011 99.2814 142.002 99.344 142.005 99.4066C142.008 99.4692 142.024 99.5305 142.051 99.587C142.078 99.6436 142.116 99.6942 142.163 99.7361C142.209 99.778 142.264 99.8103 142.323 99.8311C142.382 99.852 142.444 99.861 142.507 99.8577C142.57 99.8543 142.631 99.8387 142.687 99.8117C142.744 99.7846 142.795 99.7467 142.837 99.7001C142.878 99.6535 142.911 99.5991 142.932 99.54H142.927Z" fill="#191919"/>
<path d="M154.454 97.3044C154.116 97.7923 153.679 98.2048 153.174 98.5158C152.032 99.2151 150.024 99.3258 150.1 100.145C150.15 100.721 151.437 100.719 151.714 100.704C153.452 100.598 155.424 99.1431 155.764 98.0523C155.972 97.5807 156.152 96.5295 155.636 96.3639C155.23 96.2352 154.519 97.2144 154.454 97.3044Z" fill="#191919"/>
<path d="M160.68 97.8939C161.875 97.9093 163.061 97.6774 164.163 97.2127C165.265 96.7481 166.259 96.0608 167.083 95.1939C167.494 94.6971 168.304 93.5442 167.775 93.1707C167.376 92.8881 167.163 93.1383 166.008 94.1157C164.531 95.4706 162.629 96.2701 160.628 96.3774C159.057 96.5934 158.821 96.6177 158.783 97.0074C158.722 97.6437 160.213 97.8606 160.68 97.8939Z" fill="#191919"/>
<path d="M165.982 99.5786C167.328 99.2474 168.564 98.5702 169.568 97.6139C169.692 97.4672 170.449 96.497 170.055 96.1028C169.742 95.7932 169.335 96.0128 168.672 96.4259C168.477 96.542 168.289 96.6685 168.108 96.8048C167.301 97.3325 166.443 97.7778 165.547 98.1342C165.457 98.1729 164.398 98.6913 164.497 99.1845C164.64 99.6669 165.671 99.6209 165.982 99.5786Z" fill="#191919"/>
<path d="M167.442 102.254C169.235 101.717 170.842 100.688 172.079 99.2835C172.398 98.8686 173.082 97.8876 172.619 97.5159C172.307 97.2657 172.014 97.3746 171.005 98.2179C169.852 99.3416 168.484 100.222 166.983 100.805C165.85 101.354 165.613 101.465 165.652 101.856C165.763 102.441 167.032 102.33 167.442 102.254Z" fill="#191919"/>
<path d="M158.271 107.605C158.913 107.417 161.895 106.898 161.985 106.885C165.179 106.345 168.37 106.075 171.054 104.83C172.907 104.038 174.44 102.647 175.409 100.88C175.489 100.764 175.519 100.622 175.494 100.484C175.469 100.346 175.389 100.224 175.274 100.144C175.158 100.064 175.016 100.034 174.878 100.059C174.74 100.084 174.617 100.163 174.538 100.279C170.938 104.538 166.012 104.424 161.704 105.34C160.375 105.593 159.096 106.057 157.913 106.713C157.852 106.735 157.797 106.769 157.75 106.813C157.703 106.857 157.665 106.91 157.639 106.968C157.613 107.027 157.598 107.09 157.597 107.155C157.596 107.219 157.607 107.283 157.631 107.343C157.683 107.461 157.778 107.555 157.898 107.604C158.017 107.653 158.151 107.653 158.271 107.605Z" fill="#191919"/>
<path d="M85.5294 73.8153C85.6854 73.8468 85.8497 73.8296 86.0129 73.7647C86.1761 73.6998 86.3349 73.5884 86.4803 73.437C86.6258 73.2855 86.755 73.0969 86.8606 72.882C86.9661 72.667 87.046 72.4299 87.0957 72.1842C87.1453 71.9385 87.1637 71.689 87.1499 71.4499C87.136 71.2108 87.0902 70.9869 87.0149 70.7908C86.9397 70.5948 86.8365 70.4305 86.7113 70.3074C86.5862 70.1842 86.4414 70.1046 86.2854 70.0731C86.1293 70.0416 85.965 70.0587 85.8019 70.1236C85.6387 70.1886 85.4799 70.2999 85.3344 70.4514C85.189 70.6028 85.0598 70.7914 84.9542 71.0064C84.8486 71.2213 84.7687 71.4584 84.7191 71.7041C84.6694 71.9499 84.651 72.1994 84.6649 72.4385C84.6787 72.6775 84.7246 72.9015 84.7998 73.0975C84.8751 73.2935 84.9782 73.4578 85.1034 73.581C85.2286 73.7041 85.3733 73.7837 85.5294 73.8153Z" fill="#191919"/>
<path d="M94.5664 73.7172C94.9009 73.7832 95.2603 73.6502 95.5657 73.3475C95.8711 73.0448 96.0973 72.5973 96.1947 72.1033C96.2921 71.6093 96.2527 71.1094 96.085 70.7135C95.9174 70.3175 95.6353 70.0581 95.3008 69.9921C95.1352 69.9595 94.9617 69.9753 94.7902 70.0387C94.6188 70.1022 94.4527 70.212 94.3015 70.3618C94.1503 70.5117 94.0169 70.6987 93.909 70.9122C93.8011 71.1257 93.7207 71.3614 93.6725 71.606C93.6243 71.8506 93.6091 72.0992 93.628 72.3377C93.6468 72.5762 93.6992 72.7998 93.7822 72.9959C93.8652 73.1919 93.9772 73.3565 94.1118 73.4803C94.2463 73.6041 94.4008 73.6846 94.5664 73.7172Z" fill="#191919"/>
<path d="M106.315 72.7596C107.279 70.2054 107.244 68.0247 105.325 66.0564C105.241 59.472 98.8558 55.9764 94.0867 51.9948C91.8367 50.0688 89.7298 46.989 87.0289 45.7263C85.5835 45.0495 83.8717 44.8398 82.78 46.0125C82.2448 46.6528 81.9321 47.4497 81.889 48.2832C81.145 47.5186 80.2109 46.9657 79.1827 46.6812C75.5719 45.7659 74.1076 48.5199 74.8996 52.2846C74.8218 52.2422 74.7419 52.2038 74.6602 52.1694C72.9223 51.4557 71.9422 52.1298 71.7136 53.1387C71.4148 54.1476 71.9962 55.9629 72.4336 56.898C74.1607 60.5925 77.308 63.8172 80.3482 66.5352C80.4692 66.6456 80.621 66.7163 80.7834 66.7378C80.9457 66.7593 81.1108 66.7306 81.2563 66.6555C81.4019 66.5804 81.5209 66.4626 81.5975 66.3178C81.6741 66.1731 81.7045 66.0084 81.6847 65.8458C81.5677 64.1934 81.5821 64.5138 81.5821 64.269C82.7589 64.8507 83.9862 65.3242 85.2487 65.6838C85.3809 65.721 85.5206 65.7224 85.6535 65.688C85.7865 65.6535 85.9079 65.5844 86.0054 65.4876C86.1028 65.3909 86.1729 65.27 86.2083 65.1373C86.2438 65.0047 86.2434 64.865 86.2072 64.7325C86.056 64.0638 85.9372 63.3825 85.7959 62.6931C87.3403 63.4131 88.4347 63.9468 90.1474 64.602C90.2881 64.6561 90.4415 64.6677 90.5887 64.6356C90.7359 64.6034 90.8705 64.5288 90.9758 64.421C91.0811 64.3132 91.1526 64.1769 91.1813 64.029C91.21 63.8811 91.1947 63.728 91.1374 63.5886C91.0006 63.1746 90.8674 62.7642 90.727 62.3475C93.6742 63.2977 96.468 64.67 99.0214 66.4218C98.9989 66.4632 98.9755 66.5064 98.9494 66.5505C98.5298 67.533 98.4223 68.6207 98.6416 69.6663C98.8747 71.1774 99.9016 73.0692 100.149 73.0917C101.638 73.3131 103.413 73.5588 104.226 74.4597C104.425 74.6543 104.566 74.9007 104.633 75.171C104.699 75.4413 104.689 75.7249 104.603 75.9897C104.042 77.9373 101.326 77.9031 99.3265 77.5935C99.1306 77.5637 98.9305 77.6082 98.7657 77.7182C98.6008 77.8283 98.4831 77.996 98.4355 78.1884C97.3878 81.6226 95.9023 84.9076 94.0156 87.9624C92.2705 90.9153 92.6791 87.9795 92.6791 94.6278C92.6733 94.6958 92.6813 94.7642 92.7024 94.8291C92.7236 94.894 92.7575 94.9539 92.8022 95.0054C92.847 95.0569 92.9015 95.099 92.9628 95.129C93.024 95.1591 93.0907 95.1765 93.1588 95.1804C93.2281 95.1868 93.2979 95.1787 93.3638 95.1566C93.4298 95.1346 93.4905 95.0991 93.542 95.0524C93.5935 95.0057 93.6348 94.9488 93.6632 94.8853C93.6916 94.8218 93.7065 94.7531 93.7069 94.6836C93.9472 92.3148 94.0156 91.0683 94.1182 90.4644V90.3969C95.4943 89.0127 98.4904 83.7369 99.8062 79.2882C100.568 79.3786 101.338 79.3913 102.102 79.326C104.503 79.0776 105.75 77.8455 106.111 76.4037C106.319 75.6135 106.291 73.9962 105.641 73.44L105.719 73.0989C105.843 73.1271 105.973 73.1079 106.083 73.045C106.193 72.9822 106.276 72.8804 106.315 72.7596Z" fill="#191919"/>
<path d="M33.5139 73.1475C33.3107 72.7834 33.0275 72.4701 32.6856 72.2313C32.3438 71.9924 31.9522 71.8343 31.5404 71.7687C31.1286 71.7031 30.7073 71.7318 30.3082 71.8526C29.909 71.9734 29.5425 72.1832 29.2362 72.4662C28.7675 72.989 28.5041 73.6638 28.4946 74.3659C28.4852 75.068 28.7304 75.7497 29.1849 76.2849C29.422 76.5715 29.7194 76.8022 30.0559 76.9605C30.3924 77.1189 30.7597 77.201 31.1316 77.201C31.5035 77.201 31.8709 77.1189 32.2074 76.9605C32.5439 76.8022 32.8413 76.5715 33.0783 76.2849C33.4345 75.8536 33.6638 75.3319 33.7407 74.7779C33.8176 74.2239 33.7391 73.6594 33.5139 73.1475Z" fill="#38A1FF"/>
<path d="M50.4584 49.05C50.255 48.686 49.9717 48.3729 49.6299 48.1342C49.288 47.8955 48.8965 47.7374 48.4848 47.6718C48.073 47.6062 47.6517 47.6348 47.2527 47.7556C46.8536 47.8763 46.487 48.0859 46.1807 48.3687C45.7119 48.8916 45.4484 49.5667 45.439 50.2689C45.4296 50.9711 45.6748 51.653 46.1294 52.1883C46.3664 52.4749 46.6638 52.7056 47.0003 52.864C47.3368 53.0224 47.7041 53.1045 48.0761 53.1045C48.448 53.1045 48.8153 53.0224 49.1518 52.864C49.4883 52.7056 49.7857 52.4749 50.0228 52.1883C50.3785 51.7567 50.6076 51.2348 50.6845 50.6808C50.7614 50.1267 50.6831 49.5622 50.4584 49.05Z" fill="#38A1FF"/>
<path d="M94.913 34.1864C94.7095 33.8226 94.4262 33.5096 94.0844 33.271C93.7425 33.0324 93.351 32.8743 92.9393 32.8087C92.5276 32.7432 92.1064 32.7718 91.7074 32.8924C91.3083 33.013 90.9418 33.2225 90.6353 33.5051C90.1664 34.028 89.9028 34.703 89.8933 35.4053C89.8839 36.1076 90.1293 36.7895 90.584 37.3247C90.821 37.6113 91.1184 37.842 91.4549 38.0004C91.7915 38.1588 92.1588 38.2409 92.5307 38.2409C92.9026 38.2409 93.2699 38.1588 93.6065 38.0004C93.943 37.842 94.2404 37.6113 94.4774 37.3247C94.8331 36.893 95.0621 36.3712 95.139 35.8172C95.2159 35.2632 95.1376 34.6987 94.913 34.1864Z" fill="#38A1FF"/>
<path d="M133.121 57.9599C132.917 57.5959 132.634 57.2828 132.292 57.0441C131.95 56.8054 131.558 56.6473 131.147 56.5817C130.735 56.5161 130.313 56.5448 129.914 56.6655C129.515 56.7862 129.148 56.9958 128.842 57.2786C128.374 57.8018 128.11 58.4768 128.101 59.179C128.092 59.8812 128.337 60.5629 128.792 61.0982C129.029 61.3848 129.326 61.6155 129.663 61.7739C129.999 61.9323 130.366 62.0144 130.738 62.0144C131.11 62.0144 131.478 61.9323 131.814 61.7739C132.151 61.6155 132.448 61.3848 132.685 61.0982C133.041 60.6668 133.27 60.1449 133.347 59.5908C133.424 59.0367 133.346 58.4721 133.121 57.9599Z" fill="#38A1FF"/>
<path d="M147.823 78.2802C147.62 77.9162 147.336 77.6031 146.995 77.3644C146.653 77.1257 146.261 76.9676 145.85 76.902C145.438 76.8364 145.016 76.8651 144.617 76.9858C144.218 77.1065 143.852 77.3161 143.545 77.5989C143.077 78.1219 142.813 78.7969 142.804 79.4991C142.794 80.2013 143.04 80.8832 143.494 81.4185C143.731 81.7051 144.029 81.9358 144.365 82.0942C144.702 82.2526 145.069 82.3347 145.441 82.3347C145.813 82.3347 146.18 82.2526 146.517 82.0942C146.853 81.9358 147.15 81.7051 147.388 81.4185C147.743 80.9869 147.972 80.465 148.049 79.911C148.126 79.357 148.048 78.7924 147.823 78.2802Z" fill="#38A1FF"/>
<path d="M159.936 110.227C159.979 110.054 159.961 109.872 159.887 109.709C159.813 109.547 159.686 109.415 159.527 109.334C152.679 105.768 145.65 102.564 138.467 99.7352C138.366 99.6948 138.259 99.6752 138.151 99.6775C138.043 99.6799 137.937 99.7042 137.839 99.749C137.74 99.7938 137.652 99.8581 137.58 99.9381C137.507 100.018 137.451 100.112 137.416 100.214C136.65 102.438 136.435 103.174 135.264 107.197C129.85 108.599 128.145 115.256 127.067 120.679C120.994 108.889 109.728 100.064 97.2241 95.6591C96.5131 95.4134 97.4599 95.5421 86.029 101.43C85.3337 99.1973 84.4867 97.0148 83.4937 94.8977C83.4211 94.7587 83.3101 94.6435 83.1738 94.5659C83.0374 94.4884 82.8817 94.4517 82.7251 94.4603C82.3147 94.4909 81.9049 94.5335 81.4957 94.5881C72.6424 95.7986 65.0527 97.7435 56.7241 102.655C50.4373 106.413 44.876 111.269 40.3045 116.992C39.5133 115.3 38.114 113.967 36.385 113.26C36.745 111.39 37.0069 108.94 37.1788 106.984C37.1879 106.863 37.1699 106.741 37.126 106.628C37.0822 106.515 37.0136 106.413 36.9252 106.33C36.8369 106.246 36.731 106.184 36.6155 106.147C36.4999 106.11 36.3775 106.099 36.2572 106.115C29.2372 107.138 22.678 106.334 15.8407 104.675C15.7328 104.652 15.6214 104.652 15.5132 104.673C15.405 104.695 15.3023 104.738 15.2113 104.8C15.1202 104.862 15.0428 104.942 14.9836 105.035C14.9244 105.128 14.8847 105.233 14.8669 105.341C14.6869 106.755 14.0731 111.154 13.9669 111.95C9.02409 114.155 7.98099 119.71 7.61379 125.09C6.86679 136.569 10.3759 150.615 19.5001 157.644C28.9285 164.903 40.6501 158.004 50.2396 151.012L49.984 159.076C49.9862 159.202 50.0371 159.322 50.126 159.411C50.215 159.5 50.335 159.552 50.4609 159.554C50.5868 159.557 50.7088 159.51 50.8013 159.425C50.8938 159.339 50.9496 159.221 50.9569 159.096L51.325 150.34C52.7793 149.159 54.1146 147.839 55.312 146.398C55.413 146.303 55.4719 146.171 55.4757 146.032C55.4796 145.893 55.4282 145.759 55.3327 145.658C55.2372 145.557 55.1055 145.498 54.9666 145.494C54.8277 145.49 54.693 145.542 54.592 145.637C54.502 145.704 44.1295 156.333 32.7157 158.912C28.4371 159.878 24.1594 159.503 20.3425 156.527C11.7367 149.789 8.43279 135.977 9.20949 125.19C9.52719 120.25 10.3795 115.006 14.9983 113.24C15.1338 113.185 15.2526 113.096 15.3426 112.981C15.4327 112.866 15.4909 112.729 15.5113 112.585C15.8965 109.05 15.9865 108.928 16.3312 106.423C22.5815 108.041 29.0719 108.521 35.4922 107.841C35.3914 108.896 35.0818 111.467 34.7326 113.421C27.2671 114.771 24.8002 113.653 17.6632 113.57C17.5366 113.553 17.4083 113.587 17.3067 113.664C17.2051 113.742 17.1385 113.857 17.1214 113.983C17.1043 114.11 17.1383 114.238 17.2157 114.34C17.2932 114.441 17.4079 114.508 17.5345 114.525C18.4345 114.735 19.4623 115.014 20.788 115.209C24.3421 115.72 29.5945 115.985 33.0586 115.224C33.8054 115.052 34.5375 114.821 35.2483 114.534C36.2266 114.876 37.1153 115.435 37.8484 116.167C39.4828 117.909 39.3946 120.172 39.5908 122.876C39.9285 126.85 39.8341 130.848 39.3091 134.801C39.1804 135.821 39.1039 136.822 38.9491 137.803C38.9333 137.87 38.9308 137.94 38.942 138.008C38.9531 138.076 38.9775 138.141 39.0139 138.2C39.0503 138.259 39.098 138.31 39.1541 138.351C39.2102 138.391 39.2737 138.42 39.341 138.436C39.4084 138.452 39.4781 138.454 39.5464 138.443C39.6146 138.432 39.68 138.407 39.7388 138.371C39.7976 138.334 39.8486 138.287 39.889 138.231C39.9294 138.175 39.9584 138.111 39.9742 138.044C40.3021 137.056 40.5755 136.052 40.7932 135.034C41.6822 129.789 41.617 124.426 40.6006 119.203C51.6454 105.052 65.3506 98.0792 82.2922 96.128C83.1571 97.8731 83.9122 100.358 84.6367 102.344C81.0838 103.524 77.4601 104.479 73.7872 105.204C75.4654 102.833 76.9886 100.357 78.3475 97.7903C78.4097 97.6788 78.4257 97.5474 78.392 97.4242C78.3584 97.301 78.2777 97.1959 78.1675 97.1315C78.0546 97.0694 77.9221 97.0534 77.7977 97.087C77.6734 97.1206 77.5668 97.2011 77.5006 97.3115C76.4062 99.1727 73.3399 103.27 71.3275 105.936C71.2326 106.064 71.1789 106.218 71.1736 106.377C71.1684 106.536 71.2117 106.693 71.298 106.827C71.3842 106.961 71.5092 107.065 71.6563 107.126C71.8034 107.187 71.9656 107.202 72.1213 107.168C76.7833 106.178 81.4255 105.3 85.8778 103.608C89.8786 106.817 94.3669 109.367 99.1726 111.159C99.314 111.21 99.4669 111.22 99.6136 111.187C99.7604 111.155 99.895 111.082 100.002 110.977C100.109 110.871 100.184 110.738 100.219 110.591C100.253 110.445 100.246 110.292 100.197 110.15C98.887 106.481 98.1788 102.625 98.0998 98.7299C98.101 98.5923 98.0479 98.4598 97.9521 98.3611C97.8562 98.2623 97.7253 98.2054 97.5877 98.2025C97.4475 98.2025 97.3129 98.2569 97.2121 98.3543C97.1113 98.4517 97.0524 98.5845 97.0477 98.7245C96.8567 102.203 97.2377 105.69 98.1754 109.046C94.257 107.417 90.5819 105.256 87.2539 102.623C90.5623 100.913 93.8365 99.197 97.0477 97.3133C109.694 101.856 121.594 111.521 126.658 123.553C126.665 123.57 126.672 123.586 126.68 123.602C125.96 126.09 124.666 136.326 124.635 136.673C124.571 137.402 124.559 138.126 124.508 138.853C124.486 138.99 124.519 139.131 124.601 139.244C124.682 139.357 124.806 139.433 124.943 139.455C125.082 139.477 125.224 139.444 125.338 139.363C125.453 139.282 125.532 139.16 125.558 139.022C125.738 138.343 125.918 137.677 126.07 136.993C127.155 132.18 128.044 118.798 131.115 112.883C132.191 110.788 133.725 109.103 136.034 108.661C136.176 108.633 136.308 108.567 136.416 108.471C136.525 108.374 136.605 108.25 136.649 108.112C137.156 106.373 138.493 101.992 138.647 101.53C145.093 104.094 151.938 107.166 158.243 110.44C157.739 112.345 157.426 113.779 156.706 116.124C156.678 116.232 156.673 116.345 156.69 116.455C156.708 116.566 156.748 116.671 156.809 116.765C159.49 120.972 157.79 126 156.296 130.715C153.187 140.727 148.223 154.14 139.005 159.167C134.83 161.455 130.423 163.158 126.351 162.543C120.341 161.636 118.341 156.693 115.087 151.563C115.028 151.437 114.92 151.34 114.789 151.293C114.658 151.247 114.514 151.254 114.388 151.314C114.263 151.373 114.166 151.481 114.119 151.612C114.073 151.743 114.08 151.887 114.14 152.013C115.102 154.389 116.451 156.59 118.133 158.525C118.242 160.825 118.208 162.428 118.154 164.684C118.153 164.821 118.206 164.953 118.301 165.051C118.396 165.15 118.526 165.207 118.663 165.212C118.799 165.216 118.933 165.167 119.034 165.074C119.135 164.982 119.196 164.854 119.204 164.717C119.264 162.238 119.28 163.463 119.28 159.939C124.946 165.993 132.368 164.232 139.646 160.334C149.32 155.15 154.471 141.573 157.782 131.182C159.383 126.027 161.068 120.922 158.322 116.232C158.528 115.497 159.63 111.51 159.936 110.227Z" fill="#191919"/>
</svg>
