<svg width="61" height="61" viewBox="0 0 61 61" fill="none" xmlns="http://www.w3.org/2000/svg">
<path d="M4.70337 34.0736C4.70337 33.8457 4.7165 33.6201 4.74277 33.3969C4.76903 33.174 4.82961 32.9415 4.92449 32.6992L10.1197 17.0349C10.3518 16.3605 10.7453 15.8287 11.3003 15.4394C11.8548 15.0496 12.4936 14.8548 13.2167 14.8548H25.7134C26.3247 14.8548 26.8383 15.0664 27.2543 15.4896C27.6703 15.9127 27.8783 16.4315 27.8783 17.0457C27.8783 17.6599 27.6703 18.1725 27.2543 18.5834C26.8383 18.9939 26.3247 19.1991 25.7134 19.1991H13.9582L10.5244 29.6104H30.7389C31.279 29.6104 31.7319 29.7943 32.0975 30.162C32.4626 30.5292 32.6452 30.9846 32.6452 31.5281C32.6452 32.0712 32.4626 32.5227 32.0975 32.8828C31.7319 33.2429 31.279 33.4229 30.7389 33.4229H9.03246V46.6301H46.8842V35.1443C46.8842 34.533 47.0933 34.0194 47.5114 33.6034C47.9295 33.1874 48.4457 32.9794 49.0599 32.9794C49.6741 32.9794 50.189 33.1874 50.6046 33.6034C51.0206 34.0194 51.2286 34.533 51.2286 35.1443V53.5574C51.2286 54.319 50.9585 54.9659 50.4184 55.4979C49.8779 56.0304 49.2247 56.2966 48.4588 56.2966C47.698 56.2966 47.0513 56.0293 46.5189 55.4948C45.986 54.9597 45.7195 54.3089 45.7195 53.5421V50.9591H10.1972V53.5574C10.1972 54.319 9.92967 54.9659 9.39465 55.4979C8.85921 56.0304 8.20854 56.2966 7.44265 56.2966C6.67168 56.2966 6.02249 56.0293 5.4951 55.4948C4.96728 54.9597 4.70337 54.3089 4.70337 53.5421V34.0736ZM40.4004 43.5133C41.3743 43.5133 42.1921 43.1797 42.8538 42.5126C43.5155 41.8454 43.8463 41.0352 43.8463 40.0821C43.8463 39.0938 43.5102 38.2538 42.8379 37.562C42.1656 36.8698 41.358 36.5238 40.4151 36.5238C39.4166 36.5238 38.574 36.8684 37.8874 37.5576C37.2003 38.2464 36.8567 39.083 36.8567 40.0675C36.8567 41.0515 37.1988 41.8718 37.8829 42.5284C38.5666 43.185 39.4058 43.5133 40.4004 43.5133ZM15.6923 43.5133C16.6666 43.5133 17.4846 43.1797 18.1462 42.5126C18.8079 41.8454 19.1388 41.0352 19.1388 40.0821C19.1388 39.0938 18.8026 38.2538 18.1304 37.562C17.4581 36.8698 16.6505 36.5238 15.7075 36.5238C14.7086 36.5238 13.8659 36.8684 13.1792 37.5576C12.4925 38.2464 12.1492 39.083 12.1492 40.0675C12.1492 41.0515 12.491 41.8718 13.1747 42.5284C13.8589 43.185 14.698 43.5133 15.6923 43.5133ZM44.1869 28.961C40.8226 28.961 37.9568 27.7772 35.5897 25.4097C33.2226 23.0421 32.039 20.17 32.039 16.7934C32.039 13.4677 33.2251 10.6187 35.5973 8.24644C37.9695 5.87422 40.8289 4.68811 44.1754 4.68811C47.5542 4.68811 50.4216 5.86617 52.7777 8.2223C55.1338 10.5784 56.3119 13.4458 56.3119 16.8246C56.3119 20.2135 55.1296 23.0834 52.765 25.4345C50.4008 27.7855 47.5415 28.961 44.1869 28.961ZM44.3661 18.5942C44.7253 18.5942 45.0127 18.4781 45.2283 18.246C45.4444 18.0139 45.5524 17.7133 45.5524 17.3443V10.7093C45.5524 10.3404 45.4338 10.0478 45.1966 9.83181C44.9598 9.61576 44.6618 9.50774 44.3025 9.50774C43.9331 9.50774 43.6404 9.62635 43.4244 9.86358C43.2083 10.1008 43.1003 10.4039 43.1003 10.7729V17.4079C43.1003 17.7768 43.2189 18.0668 43.4562 18.2778C43.6934 18.4887 43.9967 18.5942 44.3661 18.5942ZM44.3343 24.2837C44.7668 24.2837 45.1309 24.1492 45.4266 23.8802C45.7223 23.6108 45.8701 23.244 45.8701 22.7797C45.8701 22.3256 45.7201 21.9587 45.4202 21.6791C45.1203 21.4 44.7689 21.2604 44.3661 21.2604C43.8696 21.3028 43.4922 21.4635 43.2338 21.7427C42.9754 22.0223 42.8462 22.3785 42.8462 22.8115C42.8462 23.2546 42.9834 23.6108 43.2579 23.8802C43.5324 24.1492 43.8912 24.2837 44.3343 24.2837Z" fill="#2563EB"/>
</svg>
