<svg width="50" height="50" viewBox="0 0 50 50" fill="none" xmlns="http://www.w3.org/2000/svg">
<path d="M25.0104 46.1447C22.0868 46.1447 19.3394 45.5895 16.7682 44.4791C14.1967 43.3687 11.9566 41.8605 10.0479 39.9546C8.13925 38.0491 6.63005 35.8109 5.52033 33.24C4.41026 30.6692 3.85522 27.9223 3.85522 24.9994C3.85522 22.0762 4.41026 19.3295 5.52033 16.7593C6.63005 14.1892 8.13925 11.9512 10.0479 10.0453C11.9566 8.13935 14.1969 6.62911 16.7688 5.51453C19.3406 4.39994 22.0886 3.84265 25.0125 3.84265C30.2327 3.84265 34.7781 5.49786 38.649 8.80827C42.5198 12.1187 44.9059 16.2425 45.8073 21.1796C45.8934 21.6522 45.7912 22.089 45.5005 22.49C45.2099 22.8914 44.8283 23.1321 44.3557 23.2119C43.8811 23.298 43.4452 23.2071 43.0479 22.939C42.6511 22.6713 42.4096 22.2999 42.3234 21.8249C41.7998 18.8392 40.5922 16.1624 38.7005 13.7947C36.8089 11.427 34.4386 9.65706 31.5896 8.48484V9.40984C31.5896 10.615 31.1724 11.6654 30.338 12.5609C29.5033 13.4564 28.4835 13.9041 27.2787 13.9041H22.7854V18.4067C22.7854 18.9994 22.5511 19.4847 22.0823 19.8624C21.6136 20.2402 21.0828 20.4291 20.4901 20.4291H16.2083V24.9749H29.5708C30.2736 24.9749 30.7986 25.2694 31.1458 25.8583C31.4931 26.4468 31.5236 27.0571 31.2375 27.689C30.8642 28.3894 30.5995 29.1274 30.4432 29.9031C30.2866 30.6788 30.2083 31.4631 30.2083 32.2562C30.2083 34.0989 30.6816 35.823 31.6281 37.4286C32.5747 39.0341 33.5514 40.5661 34.5583 42.0244C34.8264 42.3786 34.9087 42.7628 34.8052 43.177C34.7017 43.5913 34.4557 43.8894 34.0672 44.0713C32.6866 44.7411 31.2398 45.2541 29.7266 45.6104C28.2137 45.9666 26.6417 46.1447 25.0104 46.1447ZM22.7854 42.5442V38.2859C21.5702 38.2859 20.5498 37.8369 19.7245 36.939C18.8995 36.0411 18.487 34.988 18.487 33.7796V31.4999L7.88491 20.8979C7.7113 21.5923 7.58977 22.2739 7.52033 22.9427C7.45088 23.6114 7.41616 24.2907 7.41616 24.9807C7.41616 29.4633 8.87276 33.3831 11.786 36.74C14.6995 40.097 18.366 42.0317 22.7854 42.5442ZM40.8151 46.1447C40.6408 46.1447 40.4919 46.0996 40.3682 46.0093C40.245 45.919 40.1611 45.8012 40.1167 45.6557C39.6653 44.3446 39.0705 43.1289 38.3323 42.0088C37.5941 40.8883 36.7952 39.794 35.9354 38.726C35.1875 37.8097 34.5669 36.8034 34.0735 35.7072C33.58 34.6114 33.3333 33.4644 33.3333 32.2661C33.3333 30.196 34.0632 28.431 35.5229 26.9713C36.9826 25.5112 38.745 24.7812 40.8099 24.7812C42.8748 24.7812 44.6379 25.5112 46.099 26.9713C47.5597 28.4317 48.2901 30.1946 48.2901 32.2598C48.2901 33.4654 48.045 34.6147 47.5547 35.7078C47.0644 36.8008 46.4465 37.8069 45.7011 38.726C44.8761 39.8024 44.0832 40.8984 43.3224 42.014C42.5616 43.1293 41.9564 44.3432 41.5068 45.6557C41.4627 45.8012 41.3799 45.919 41.2583 46.0093C41.1368 46.0996 40.9891 46.1447 40.8151 46.1447ZM40.812 41.6348C41.2981 40.9057 41.7929 40.1939 42.2964 39.4994C42.7998 38.805 43.3294 38.1105 43.8849 37.4161C44.4752 36.6605 44.9787 35.856 45.3953 35.0025C45.812 34.1494 46.0203 33.2352 46.0203 32.2598C46.0203 30.8098 45.5169 29.5793 44.5099 28.5682C43.503 27.5571 42.2703 27.0515 40.812 27.0515C39.3537 27.0515 38.121 27.5571 37.1141 28.5682C36.1071 29.5793 35.6037 30.8116 35.6037 32.265C35.6037 33.2338 35.812 34.1456 36.2287 35.0005C36.6453 35.8553 37.1488 36.6605 37.7391 37.4161C38.2946 38.1105 38.8241 38.805 39.3276 39.4994C39.8311 40.1939 40.3259 40.9057 40.812 41.6348ZM40.812 34.864C40.0828 34.864 39.4665 34.6144 38.963 34.115C38.4596 33.6157 38.2078 32.9973 38.2078 32.2598C38.2078 31.5307 38.4596 30.9144 38.963 30.4109C39.4665 29.9074 40.0828 29.6557 40.812 29.6557C41.5412 29.6557 42.1575 29.9074 42.661 30.4109C43.1644 30.9144 43.4162 31.5307 43.4162 32.2598C43.4162 32.9973 43.1644 33.6157 42.661 34.115C42.1575 34.6144 41.5412 34.864 40.812 34.864Z" fill="#3B82F6"/>
</svg>
