<svg width="195" height="65" viewBox="0 0 195 65" fill="none" xmlns="http://www.w3.org/2000/svg">
<rect x="0.5" y="0.5" width="194" height="64" rx="6.5" fill="white"/>
<rect x="0.5" y="0.5" width="194" height="64" rx="6.5" stroke="black"/>
<path d="M132.48 31.2016V34.9245H130.146V37.3659H132.48V45.6615C132.48 48.4942 133.761 49.6272 136.985 49.6272C137.551 49.6272 138.091 49.5598 138.563 49.4789V47.0644C138.158 47.1048 137.902 47.1318 137.457 47.1318C136.014 47.1318 135.38 46.4574 135.38 44.9197V37.3659H138.563V34.9245H135.38V31.2016H132.48Z" fill="black"/>
<path d="M146.775 49.8296C151.065 49.8296 153.695 46.9565 153.695 42.1949C153.695 37.4604 151.051 34.5738 146.775 34.5738C142.486 34.5738 139.842 37.4604 139.842 42.1949C139.842 46.9565 142.473 49.8296 146.775 49.8296ZM146.775 47.2532C144.253 47.2532 142.837 45.4053 142.837 42.1949C142.837 39.0116 144.253 37.1501 146.775 37.1501C149.284 37.1501 150.714 39.0116 150.714 42.1949C150.714 45.3918 149.284 47.2532 146.775 47.2532Z" fill="black"/>
<path d="M155.946 49.5463H158.846V40.873C158.846 38.8092 160.397 37.4199 162.596 37.4199C163.108 37.4199 163.971 37.5143 164.214 37.5953V34.7356C163.904 34.6547 163.351 34.6142 162.919 34.6142C161.004 34.6142 159.372 35.6664 158.954 37.1097H158.738V34.857H155.946V49.5463Z" fill="black"/>
<path d="M171.415 37.0422C173.56 37.0422 174.963 38.5395 175.03 40.8461H167.611C167.773 38.553 169.27 37.0422 171.415 37.0422ZM175.017 45.5806C174.477 46.7272 173.277 47.3611 171.523 47.3611C169.203 47.3611 167.706 45.729 167.611 43.1526V42.9908H177.984V41.9791C177.984 37.3659 175.516 34.5738 171.429 34.5738C167.288 34.5738 164.657 37.5548 164.657 42.2489C164.657 46.943 167.234 49.8296 171.442 49.8296C174.801 49.8296 177.148 48.2109 177.809 45.5806H175.017Z" fill="black"/>
<path d="M113.461 44.1218C113.685 47.7288 116.691 50.0356 121.165 50.0356C125.946 50.0356 128.938 47.617 128.938 43.7583C128.938 40.7245 127.232 39.0468 123.094 38.0821L120.871 37.5369C118.243 36.9217 117.18 36.0969 117.18 34.6568C117.18 32.8394 118.83 31.651 121.304 31.651C123.653 31.651 125.275 32.8114 125.569 34.6708H128.616C128.435 31.2735 125.443 28.8828 121.346 28.8828C116.942 28.8828 114.006 31.2735 114.006 34.8666C114.006 37.8305 115.67 39.592 119.319 40.4449L121.92 41.074C124.59 41.7031 125.764 42.6259 125.764 44.1637C125.764 45.9533 123.919 47.2535 121.402 47.2535C118.704 47.2535 116.831 46.0371 116.565 44.1218H113.461Z" fill="black"/>
<path d="M83.4193 34.6142C81.423 34.6142 79.6964 35.6124 78.8061 37.285H78.5903V34.857H75.7981V54.4292H78.6982V47.3207H78.9275C79.6964 48.8719 81.3555 49.7891 83.4463 49.7891C87.1557 49.7891 89.5162 46.862 89.5162 42.1949C89.5162 37.5278 87.1557 34.6142 83.4193 34.6142ZM82.5965 47.1858C80.1685 47.1858 78.6443 45.2704 78.6443 42.2084C78.6443 39.133 80.1685 37.2176 82.61 37.2176C85.0649 37.2176 86.5352 39.0925 86.5352 42.1949C86.5352 45.3108 85.0649 47.1858 82.5965 47.1858Z" fill="black"/>
<path d="M99.6641 34.6142C97.6678 34.6142 95.9412 35.6124 95.0509 37.285H94.8351V34.857H92.0429V54.4292H94.943V47.3207H95.1723C95.9412 48.8719 97.6003 49.7891 99.6911 49.7891C103.4 49.7891 105.761 46.862 105.761 42.1949C105.761 37.5278 103.4 34.6142 99.6641 34.6142ZM98.8413 47.1858C96.4133 47.1858 94.8891 45.2704 94.8891 42.2084C94.8891 39.133 96.4133 37.2176 98.8548 37.2176C101.31 37.2176 102.78 39.0925 102.78 42.1949C102.78 45.3108 101.31 47.1858 98.8413 47.1858Z" fill="black"/>
<path d="M70.5949 49.5463H73.9223L66.6383 29.3721H63.269L55.985 49.5463H59.2006L61.06 44.1917H68.7494L70.5949 49.5463ZM64.7929 33.0351H65.0306L67.9525 41.5633H61.8569L64.7929 33.0351Z" fill="black"/>
<path d="M40.2496 32.989C40.2848 30.2574 41.7518 27.6726 44.079 26.2419C42.6109 24.1451 40.1518 22.8157 37.5934 22.7357C34.8646 22.4492 32.2192 24.3685 30.8287 24.3685C29.4112 24.3685 27.2703 22.7641 24.9649 22.8115C21.9598 22.9086 19.1584 24.6171 17.6964 27.2443C14.5536 32.6855 16.8978 40.6822 19.9083 45.0804C21.4145 47.2341 23.1749 49.6399 25.4782 49.5546C27.7322 49.4611 28.574 48.1173 31.2947 48.1173C33.9902 48.1173 34.78 49.5546 37.1301 49.5003C39.5487 49.4611 41.0726 47.337 42.5259 45.163C43.6082 43.6284 44.4409 41.9323 44.9934 40.1376C42.1511 38.9355 40.2529 36.0751 40.2496 32.989Z" fill="black"/>
<path d="M35.8107 19.8432C37.1294 18.2601 37.7791 16.2253 37.6218 14.1709C35.607 14.3825 33.746 15.3454 32.4094 16.8678C31.1025 18.3552 30.4223 20.3542 30.5509 22.33C32.5664 22.3508 34.5477 21.414 35.8107 19.8432Z" fill="black"/>
<path d="M60.4053 16.8232H58.0503L58.0376 15.6616H60.0942C60.4412 15.6616 60.7354 15.6108 60.9766 15.5093C61.222 15.4035 61.4082 15.2533 61.5352 15.0586C61.6621 14.8597 61.7256 14.6206 61.7256 14.3413C61.7256 14.0324 61.6663 13.7806 61.5479 13.5859C61.4294 13.3913 61.2474 13.2495 61.002 13.1606C60.7607 13.0718 60.4518 13.0273 60.0752 13.0273H58.5327V21H56.9395V11.7578H60.0752C60.583 11.7578 61.0358 11.8065 61.4336 11.9038C61.8356 12.0011 62.1763 12.1535 62.4556 12.3608C62.7391 12.564 62.9528 12.8221 63.0967 13.1353C63.2448 13.4484 63.3188 13.8208 63.3188 14.2524C63.3188 14.6333 63.2279 14.9824 63.0459 15.2998C62.8639 15.613 62.5952 15.869 62.2397 16.0679C61.8843 16.2668 61.4421 16.3853 60.9131 16.4233L60.4053 16.8232ZM60.3354 21H57.5488L58.2661 19.7368H60.3354C60.6951 19.7368 60.9956 19.6776 61.2368 19.5591C61.478 19.4364 61.6579 19.2692 61.7764 19.0576C61.8991 18.8418 61.9604 18.59 61.9604 18.3022C61.9604 18.0018 61.9076 17.7415 61.8018 17.5215C61.696 17.2972 61.5288 17.1258 61.3003 17.0073C61.0718 16.8846 60.7734 16.8232 60.4053 16.8232H58.6152L58.6279 15.6616H60.9575L61.3193 16.0996C61.8271 16.1165 62.244 16.2287 62.5698 16.436C62.8999 16.6434 63.1453 16.9121 63.3062 17.2422C63.467 17.5723 63.5474 17.9277 63.5474 18.3086C63.5474 18.8968 63.4183 19.3898 63.1602 19.7876C62.9062 20.1854 62.5402 20.488 62.062 20.6953C61.5838 20.8984 61.0083 21 60.3354 21ZM66.6387 14.1318V21H65.1025V14.1318H66.6387ZM65.001 12.3291C65.001 12.0964 65.0771 11.9038 65.2295 11.7515C65.3861 11.5949 65.6019 11.5166 65.877 11.5166C66.1478 11.5166 66.3615 11.5949 66.5181 11.7515C66.6746 11.9038 66.7529 12.0964 66.7529 12.3291C66.7529 12.5576 66.6746 12.748 66.5181 12.9004C66.3615 13.0527 66.1478 13.1289 65.877 13.1289C65.6019 13.1289 65.3861 13.0527 65.2295 12.9004C65.0771 12.748 65.001 12.5576 65.001 12.3291ZM71.3423 21.127C70.8345 21.127 70.3753 21.0444 69.9648 20.8794C69.5586 20.7101 69.2116 20.4753 68.9238 20.1748C68.6403 19.8743 68.4224 19.521 68.27 19.1147C68.1177 18.7085 68.0415 18.2705 68.0415 17.8008V17.5469C68.0415 17.0094 68.1198 16.5228 68.2764 16.0869C68.4329 15.651 68.6509 15.2786 68.9302 14.9697C69.2095 14.6566 69.5396 14.4175 69.9204 14.2524C70.3013 14.0874 70.7139 14.0049 71.1582 14.0049C71.6491 14.0049 72.0786 14.0874 72.4468 14.2524C72.8149 14.4175 73.1196 14.6502 73.3608 14.9507C73.6063 15.2469 73.7882 15.6003 73.9067 16.0107C74.0295 16.4212 74.0908 16.874 74.0908 17.3691V18.0229H68.7842V16.9248H72.5801V16.8042C72.5716 16.5291 72.5166 16.271 72.415 16.0298C72.3177 15.7886 72.1675 15.5939 71.9644 15.4458C71.7612 15.2977 71.4904 15.2236 71.1519 15.2236C70.8979 15.2236 70.6715 15.2786 70.4727 15.3887C70.278 15.4945 70.1151 15.6489 69.9839 15.8521C69.8527 16.0552 69.7511 16.3006 69.6792 16.5884C69.6115 16.8719 69.5776 17.1914 69.5776 17.5469V17.8008C69.5776 18.1012 69.6178 18.3805 69.6982 18.6387C69.7829 18.8926 69.9056 19.1147 70.0664 19.3052C70.2272 19.4956 70.4219 19.6458 70.6504 19.7559C70.8789 19.8617 71.1392 19.9146 71.4312 19.9146C71.7993 19.9146 72.1273 19.8405 72.415 19.6924C72.7028 19.5443 72.9525 19.3348 73.1641 19.064L73.9702 19.8447C73.8221 20.0605 73.6296 20.2679 73.3926 20.4668C73.1556 20.6615 72.8657 20.8201 72.5229 20.9429C72.1844 21.0656 71.7909 21.127 71.3423 21.127ZM76.8013 15.5981V21H75.2715V14.1318H76.7124L76.8013 15.5981ZM76.5283 17.312L76.0332 17.3057C76.0374 16.819 76.1051 16.3726 76.2363 15.9663C76.3717 15.5601 76.5579 15.2109 76.7949 14.9189C77.0361 14.627 77.3239 14.4027 77.6582 14.2461C77.9925 14.0853 78.3649 14.0049 78.7754 14.0049C79.1055 14.0049 79.4038 14.0514 79.6704 14.1445C79.9412 14.2334 80.1719 14.3794 80.3623 14.5825C80.557 14.7856 80.7051 15.0501 80.8066 15.376C80.9082 15.6976 80.959 16.0933 80.959 16.563V21H79.4229V16.5566C79.4229 16.2266 79.3742 15.9663 79.2769 15.7759C79.1838 15.5812 79.0462 15.4437 78.8643 15.3633C78.6865 15.2786 78.4644 15.2363 78.1978 15.2363C77.9354 15.2363 77.7005 15.2913 77.4932 15.4014C77.2858 15.5114 77.1102 15.6616 76.9663 15.8521C76.8267 16.0425 76.7188 16.2625 76.6426 16.5122C76.5664 16.7619 76.5283 17.0285 76.5283 17.312ZM85.6689 14.1318V15.249H81.7969V14.1318H85.6689ZM82.9141 12.4497H84.4438V19.1021C84.4438 19.3136 84.4735 19.4766 84.5327 19.5908C84.5962 19.7008 84.6829 19.7749 84.793 19.813C84.903 19.8511 85.0321 19.8701 85.1802 19.8701C85.286 19.8701 85.3875 19.8638 85.4849 19.8511C85.5822 19.8384 85.6605 19.8257 85.7197 19.813L85.7261 20.981C85.5991 21.019 85.451 21.0529 85.2817 21.0825C85.1167 21.1121 84.9263 21.127 84.7104 21.127C84.3592 21.127 84.0482 21.0656 83.7773 20.9429C83.5065 20.8159 83.2949 20.6107 83.1426 20.3271C82.9902 20.0436 82.9141 19.667 82.9141 19.1973V12.4497ZM86.4053 17.6421V17.4961C86.4053 17.001 86.4772 16.5418 86.6211 16.1187C86.765 15.6912 86.9723 15.321 87.2432 15.0078C87.5182 14.6904 87.8525 14.445 88.2461 14.2715C88.6439 14.0938 89.0924 14.0049 89.5918 14.0049C90.0954 14.0049 90.5439 14.0938 90.9375 14.2715C91.3353 14.445 91.6717 14.6904 91.9468 15.0078C92.2218 15.321 92.4313 15.6912 92.5752 16.1187C92.7191 16.5418 92.791 17.001 92.791 17.4961V17.6421C92.791 18.1372 92.7191 18.5964 92.5752 19.0195C92.4313 19.4427 92.2218 19.813 91.9468 20.1304C91.6717 20.4435 91.3374 20.689 90.9438 20.8667C90.5503 21.0402 90.1038 21.127 89.6045 21.127C89.1009 21.127 88.6502 21.0402 88.2524 20.8667C87.8589 20.689 87.5246 20.4435 87.2495 20.1304C86.9744 19.813 86.765 19.4427 86.6211 19.0195C86.4772 18.5964 86.4053 18.1372 86.4053 17.6421ZM87.9351 17.4961V17.6421C87.9351 17.951 87.9668 18.243 88.0303 18.5181C88.0938 18.7931 88.1932 19.0343 88.3286 19.2417C88.464 19.4491 88.6375 19.612 88.8491 19.7305C89.0607 19.849 89.3125 19.9082 89.6045 19.9082C89.888 19.9082 90.1335 19.849 90.3408 19.7305C90.5524 19.612 90.7259 19.4491 90.8613 19.2417C90.9967 19.0343 91.0962 18.7931 91.1597 18.5181C91.2274 18.243 91.2612 17.951 91.2612 17.6421V17.4961C91.2612 17.1914 91.2274 16.9036 91.1597 16.6328C91.0962 16.3577 90.9946 16.1144 90.855 15.9028C90.7196 15.6912 90.5461 15.5262 90.3345 15.4077C90.1271 15.285 89.8796 15.2236 89.5918 15.2236C89.304 15.2236 89.0544 15.285 88.8428 15.4077C88.6354 15.5262 88.464 15.6912 88.3286 15.9028C88.1932 16.1144 88.0938 16.3577 88.0303 16.6328C87.9668 16.9036 87.9351 17.1914 87.9351 17.4961ZM90.0171 11.25L91.7754 13.002V13.0718H90.5376L89.5664 12.0752L88.5952 13.0718H87.3828V12.9893L89.1157 11.25H90.0171ZM97.2217 14.1318V15.249H93.3496V14.1318H97.2217ZM94.4668 12.4497H95.9966V19.1021C95.9966 19.3136 96.0262 19.4766 96.0854 19.5908C96.1489 19.7008 96.2357 19.7749 96.3457 19.813C96.4557 19.8511 96.5848 19.8701 96.7329 19.8701C96.8387 19.8701 96.9403 19.8638 97.0376 19.8511C97.1349 19.8384 97.2132 19.8257 97.2725 19.813L97.2788 20.981C97.1519 21.019 97.0037 21.0529 96.8345 21.0825C96.6694 21.1121 96.479 21.127 96.2632 21.127C95.9119 21.127 95.6009 21.0656 95.3301 20.9429C95.0592 20.8159 94.8477 20.6107 94.6953 20.3271C94.543 20.0436 94.4668 19.667 94.4668 19.1973V12.4497ZM105.493 19.1401C105.493 18.9878 105.455 18.8503 105.378 18.7275C105.302 18.6006 105.156 18.4863 104.94 18.3848C104.729 18.2832 104.416 18.1901 104.001 18.1055C103.637 18.0251 103.303 17.9299 102.998 17.8198C102.698 17.7056 102.439 17.568 102.224 17.4072C102.008 17.2464 101.841 17.056 101.722 16.8359C101.604 16.6159 101.544 16.362 101.544 16.0742C101.544 15.7949 101.606 15.5304 101.729 15.2808C101.851 15.0311 102.027 14.811 102.255 14.6206C102.484 14.4302 102.761 14.2799 103.087 14.1699C103.417 14.0599 103.785 14.0049 104.191 14.0049C104.767 14.0049 105.26 14.1022 105.67 14.2969C106.085 14.4873 106.403 14.7476 106.623 15.0776C106.843 15.4035 106.953 15.7716 106.953 16.1821H105.423C105.423 16.0002 105.376 15.8309 105.283 15.6743C105.194 15.5135 105.059 15.3844 104.877 15.2871C104.695 15.1855 104.466 15.1348 104.191 15.1348C103.929 15.1348 103.711 15.1771 103.538 15.2617C103.368 15.3421 103.241 15.4479 103.157 15.5791C103.076 15.7103 103.036 15.8542 103.036 16.0107C103.036 16.125 103.057 16.2287 103.1 16.3218C103.146 16.4106 103.222 16.4932 103.328 16.5693C103.434 16.6413 103.578 16.709 103.76 16.7725C103.946 16.8359 104.179 16.8973 104.458 16.9565C104.983 17.0666 105.433 17.2083 105.81 17.3818C106.191 17.5511 106.483 17.7712 106.686 18.042C106.889 18.3086 106.991 18.6471 106.991 19.0576C106.991 19.3623 106.925 19.6416 106.794 19.8955C106.667 20.1452 106.481 20.3631 106.235 20.5493C105.99 20.7313 105.696 20.873 105.353 20.9746C105.014 21.0762 104.634 21.127 104.21 21.127C103.588 21.127 103.062 21.0169 102.63 20.7969C102.198 20.5726 101.87 20.2869 101.646 19.9399C101.426 19.5887 101.316 19.2248 101.316 18.8481H102.795C102.812 19.1317 102.89 19.3581 103.03 19.5273C103.174 19.6924 103.351 19.813 103.563 19.8892C103.779 19.9611 104.001 19.9971 104.229 19.9971C104.505 19.9971 104.735 19.9611 104.921 19.8892C105.108 19.813 105.249 19.7114 105.347 19.5845C105.444 19.4533 105.493 19.3052 105.493 19.1401ZM112.462 19.3813V14.1318H113.999V21H112.551L112.462 19.3813ZM112.678 17.9531L113.192 17.9404C113.192 18.4017 113.142 18.827 113.04 19.2163C112.938 19.6014 112.782 19.9378 112.57 20.2256C112.359 20.5091 112.088 20.7313 111.758 20.8921C111.428 21.0487 111.032 21.127 110.571 21.127C110.236 21.127 109.93 21.0783 109.65 20.981C109.371 20.8836 109.13 20.7334 108.927 20.5303C108.728 20.3271 108.573 20.0627 108.463 19.7368C108.353 19.411 108.298 19.0216 108.298 18.5688V14.1318H109.828V18.5815C109.828 18.8312 109.858 19.0407 109.917 19.21C109.976 19.375 110.057 19.5083 110.158 19.6099C110.26 19.7114 110.378 19.7834 110.514 19.8257C110.649 19.868 110.793 19.8892 110.945 19.8892C111.381 19.8892 111.724 19.8045 111.974 19.6353C112.228 19.4618 112.407 19.229 112.513 18.937C112.623 18.645 112.678 18.3171 112.678 17.9531ZM117.103 15.4395V21H115.573V14.1318H117.033L117.103 15.4395ZM119.204 14.0874L119.191 15.5093C119.098 15.4924 118.996 15.4797 118.886 15.4712C118.78 15.4627 118.675 15.4585 118.569 15.4585C118.306 15.4585 118.076 15.4966 117.877 15.5728C117.678 15.6447 117.511 15.7505 117.375 15.8901C117.244 16.0256 117.143 16.1906 117.071 16.3853C116.999 16.5799 116.957 16.7979 116.944 17.0391L116.595 17.0645C116.595 16.6328 116.637 16.2329 116.722 15.8647C116.806 15.4966 116.933 15.1729 117.103 14.8936C117.276 14.6143 117.492 14.3963 117.75 14.2397C118.012 14.0832 118.315 14.0049 118.658 14.0049C118.751 14.0049 118.85 14.0133 118.956 14.0303C119.066 14.0472 119.149 14.0662 119.204 14.0874Z" fill="black"/>
</svg>
