<svg width="152" height="52" viewBox="0 0 152 52" fill="none" xmlns="http://www.w3.org/2000/svg">
<rect x="0.5" y="1" width="151" height="50" rx="6.5" fill="#0C0D10"/>
<rect x="0.5" y="1" width="151" height="50" rx="6.5" stroke="#A6A6A6"/>
<path d="M103.266 24.9812V27.9023H101.447V29.8179H103.266V36.3267C103.266 38.5492 104.265 39.4383 106.778 39.4383C107.22 39.4383 107.64 39.3853 108.008 39.3218V37.4274C107.693 37.4591 107.493 37.4803 107.146 37.4803C106.021 37.4803 105.527 36.9511 105.527 35.7446V29.8179H108.008V27.9023H105.527V24.9812H103.266Z" fill="white"/>
<path d="M114.41 39.597C117.753 39.597 119.803 37.3427 119.803 33.6068C119.803 29.8919 117.743 27.6271 114.41 27.6271C111.066 27.6271 109.005 29.8919 109.005 33.6068C109.005 37.3427 111.056 39.597 114.41 39.597ZM114.41 37.5756C112.443 37.5756 111.339 36.1256 111.339 33.6068C111.339 31.1091 112.443 29.6485 114.41 29.6485C116.365 29.6485 117.48 31.1091 117.48 33.6068C117.48 36.115 116.365 37.5756 114.41 37.5756Z" fill="white"/>
<path d="M121.558 39.3748H123.818V32.5696C123.818 30.9503 125.027 29.8602 126.741 29.8602C127.141 29.8602 127.814 29.9343 128.003 29.9978V27.7541C127.761 27.6906 127.33 27.6588 126.994 27.6588C125.501 27.6588 124.228 28.4843 123.902 29.6168H123.734V27.8493H121.558V39.3748Z" fill="white"/>
<path d="M133.616 29.5639C135.288 29.5639 136.381 30.7386 136.434 32.5484H130.651C130.777 30.7492 131.944 29.5639 133.616 29.5639ZM136.423 36.2632C136.003 37.1628 135.067 37.6602 133.7 37.6602C131.892 37.6602 130.724 36.3796 130.651 34.3582V34.2312H138.736V33.4374C138.736 29.8179 136.812 27.6271 133.626 27.6271C130.399 27.6271 128.348 29.966 128.348 33.6491C128.348 37.3321 130.356 39.597 133.637 39.597C136.255 39.597 138.085 38.327 138.6 36.2632H136.423Z" fill="white"/>
<path d="M88.4416 35.1186C88.6159 37.9487 90.959 39.7587 94.4463 39.7587C98.1733 39.7587 100.505 37.861 100.505 34.8334C100.505 32.453 99.1759 31.1367 95.9502 30.3798L94.2174 29.952C92.1686 29.4693 91.3404 28.8221 91.3404 27.6923C91.3404 26.2662 92.6263 25.3338 94.5552 25.3338C96.3861 25.3338 97.6502 26.2443 97.8791 27.7032H100.255C100.113 25.0376 97.781 23.1619 94.5879 23.1619C91.1551 23.1619 88.8666 25.0376 88.8666 27.8568C88.8666 30.1823 90.1634 31.5645 93.0078 32.2336L95.0347 32.7273C97.1162 33.2209 98.0316 33.9449 98.0316 35.1515C98.0316 36.5556 96.5931 37.5758 94.6315 37.5758C92.5283 37.5758 91.0679 36.6214 90.8609 35.1186H88.4416Z" fill="white"/>
<path d="M65.0243 27.6588C63.4682 27.6588 62.1223 28.442 61.4284 29.7544H61.2602V27.8493H59.0837V43.206H61.3443V37.6285H61.523C62.1223 38.8456 63.4156 39.5653 65.0453 39.5653C67.9368 39.5653 69.7768 37.2686 69.7768 33.6068C69.7768 29.9449 67.9368 27.6588 65.0243 27.6588ZM64.3829 37.5226C62.4903 37.5226 61.3022 36.0198 61.3022 33.6173C61.3022 31.2043 62.4903 29.7014 64.3934 29.7014C66.307 29.7014 67.4531 31.1726 67.4531 33.6068C67.4531 36.0515 66.307 37.5226 64.3829 37.5226Z" fill="white"/>
<path d="M77.6869 27.6588C76.1308 27.6588 74.7849 28.442 74.091 29.7544H73.9228V27.8493H71.7463V43.206H74.0069V37.6285H74.1856C74.7849 38.8456 76.0782 39.5653 77.7079 39.5653C80.5994 39.5653 82.4394 37.2686 82.4394 33.6068C82.4394 29.9449 80.5994 27.6588 77.6869 27.6588ZM77.0455 37.5226C75.153 37.5226 73.9648 36.0198 73.9648 33.6173C73.9648 31.2043 75.153 29.7014 77.056 29.7014C78.9697 29.7014 80.1157 31.1726 80.1157 33.6068C80.1157 36.0515 78.9697 37.5226 77.0455 37.5226Z" fill="white"/>
<path d="M55.0278 39.3748H57.6215L51.9438 23.5458H49.3174L43.6396 39.3748H46.1461L47.5955 35.1734H53.5893L55.0278 39.3748ZM50.5053 26.4198H50.6905L52.9682 33.1112H48.2167L50.5053 26.4198Z" fill="white"/>
<path d="M31.3741 26.3835C31.4015 24.2403 32.545 22.2123 34.359 21.0897C33.2146 19.4445 31.2978 18.4014 29.3036 18.3386C27.1765 18.1139 25.1145 19.6198 24.0306 19.6198C22.9257 19.6198 21.2569 18.3609 19.4598 18.3982C17.1174 18.4743 14.9337 19.8148 13.7941 21.8762C11.3444 26.1454 13.1716 32.4198 15.5183 35.8707C16.6924 37.5605 18.0645 39.4481 19.8599 39.3812C21.6169 39.3078 22.2731 38.2534 24.3939 38.2534C26.495 38.2534 27.1106 39.3812 28.9425 39.3386C30.8277 39.3078 32.0156 37.6413 33.1484 35.9354C33.992 34.7314 34.6411 33.4006 35.0718 31.9925C32.8562 31.0493 31.3766 28.8049 31.3741 26.3835Z" fill="white"/>
<path d="M27.914 16.0691C28.9419 14.827 29.4483 13.2305 29.3257 11.6186C27.7552 11.7846 26.3046 12.5401 25.2627 13.7346C24.244 14.9016 23.7138 16.4701 23.814 18.0204C25.3851 18.0366 26.9295 17.3016 27.914 16.0691Z" fill="white"/>
<path d="M49.0664 14.1445H46.8926L46.8809 13.0723H48.7793C49.0996 13.0723 49.3711 13.0254 49.5938 12.9316C49.8203 12.834 49.9922 12.6953 50.1094 12.5156C50.2266 12.332 50.2852 12.1113 50.2852 11.8535C50.2852 11.5684 50.2305 11.3359 50.1211 11.1562C50.0117 10.9766 49.8438 10.8457 49.6172 10.7637C49.3945 10.6816 49.1094 10.6406 48.7617 10.6406H47.3379V18H45.8672V9.46875H48.7617C49.2305 9.46875 49.6484 9.51367 50.0156 9.60352C50.3867 9.69336 50.7012 9.83398 50.959 10.0254C51.2207 10.2129 51.418 10.4512 51.5508 10.7402C51.6875 11.0293 51.7559 11.373 51.7559 11.7715C51.7559 12.123 51.6719 12.4453 51.5039 12.7383C51.3359 13.0273 51.0879 13.2637 50.7598 13.4473C50.4316 13.6309 50.0234 13.7402 49.5352 13.7754L49.0664 14.1445ZM49.002 18H46.4297L47.0918 16.834H49.002C49.334 16.834 49.6113 16.7793 49.834 16.6699C50.0566 16.5566 50.2227 16.4023 50.332 16.207C50.4453 16.0078 50.502 15.7754 50.502 15.5098C50.502 15.2324 50.4531 14.9922 50.3555 14.7891C50.2578 14.582 50.1035 14.4238 49.8926 14.3145C49.6816 14.2012 49.4062 14.1445 49.0664 14.1445H47.4141L47.4258 13.0723H49.5762L49.9102 13.4766C50.3789 13.4922 50.7637 13.5957 51.0645 13.7871C51.3691 13.9785 51.5957 14.2266 51.7441 14.5312C51.8926 14.8359 51.9668 15.1641 51.9668 15.5156C51.9668 16.0586 51.8477 16.5137 51.6094 16.8809C51.375 17.248 51.0371 17.5273 50.5957 17.7188C50.1543 17.9062 49.623 18 49.002 18ZM54.8203 11.6602V18H53.4023V11.6602H54.8203ZM53.3086 9.99609C53.3086 9.78125 53.3789 9.60352 53.5195 9.46289C53.6641 9.31836 53.8633 9.24609 54.1172 9.24609C54.3672 9.24609 54.5645 9.31836 54.709 9.46289C54.8535 9.60352 54.9258 9.78125 54.9258 9.99609C54.9258 10.207 54.8535 10.3828 54.709 10.5234C54.5645 10.6641 54.3672 10.7344 54.1172 10.7344C53.8633 10.7344 53.6641 10.6641 53.5195 10.5234C53.3789 10.3828 53.3086 10.207 53.3086 9.99609ZM59.1621 18.1172C58.6934 18.1172 58.2695 18.041 57.8906 17.8887C57.5156 17.7324 57.1953 17.5156 56.9297 17.2383C56.668 16.9609 56.4668 16.6348 56.3262 16.2598C56.1855 15.8848 56.1152 15.4805 56.1152 15.0469V14.8125C56.1152 14.3164 56.1875 13.8672 56.332 13.4648C56.4766 13.0625 56.6777 12.7188 56.9355 12.4336C57.1934 12.1445 57.498 11.9238 57.8496 11.7715C58.2012 11.6191 58.582 11.543 58.9922 11.543C59.4453 11.543 59.8418 11.6191 60.1816 11.7715C60.5215 11.9238 60.8027 12.1387 61.0254 12.416C61.252 12.6895 61.4199 13.0156 61.5293 13.3945C61.6426 13.7734 61.6992 14.1914 61.6992 14.6484V15.252H56.8008V14.2383H60.3047V14.127C60.2969 13.873 60.2461 13.6348 60.1523 13.4121C60.0625 13.1895 59.9238 13.0098 59.7363 12.873C59.5488 12.7363 59.2988 12.668 58.9863 12.668C58.752 12.668 58.543 12.7188 58.3594 12.8203C58.1797 12.918 58.0293 13.0605 57.9082 13.248C57.7871 13.4355 57.6934 13.6621 57.627 13.9277C57.5645 14.1895 57.5332 14.4844 57.5332 14.8125V15.0469C57.5332 15.3242 57.5703 15.582 57.6445 15.8203C57.7227 16.0547 57.8359 16.2598 57.9844 16.4355C58.1328 16.6113 58.3125 16.75 58.5234 16.8516C58.7344 16.9492 58.9746 16.998 59.2441 16.998C59.584 16.998 59.8867 16.9297 60.1523 16.793C60.418 16.6562 60.6484 16.4629 60.8438 16.2129L61.5879 16.9336C61.4512 17.1328 61.2734 17.3242 61.0547 17.5078C60.8359 17.6875 60.5684 17.834 60.252 17.9473C59.9395 18.0605 59.5762 18.1172 59.1621 18.1172ZM64.2012 13.0137V18H62.7891V11.6602H64.1191L64.2012 13.0137ZM63.9492 14.5957L63.4922 14.5898C63.4961 14.1406 63.5586 13.7285 63.6797 13.3535C63.8047 12.9785 63.9766 12.6562 64.1953 12.3867C64.418 12.1172 64.6836 11.9102 64.9922 11.7656C65.3008 11.6172 65.6445 11.543 66.0234 11.543C66.3281 11.543 66.6035 11.5859 66.8496 11.6719C67.0996 11.7539 67.3125 11.8887 67.4883 12.0762C67.668 12.2637 67.8047 12.5078 67.8984 12.8086C67.9922 13.1055 68.0391 13.4707 68.0391 13.9043V18H66.6211V13.8984C66.6211 13.5938 66.5762 13.3535 66.4863 13.1777C66.4004 12.998 66.2734 12.8711 66.1055 12.7969C65.9414 12.7188 65.7363 12.6797 65.4902 12.6797C65.248 12.6797 65.0312 12.7305 64.8398 12.832C64.6484 12.9336 64.4863 13.0723 64.3535 13.248C64.2246 13.4238 64.125 13.627 64.0547 13.8574C63.9844 14.0879 63.9492 14.334 63.9492 14.5957ZM72.3867 11.6602V12.6914H68.8125V11.6602H72.3867ZM69.8438 10.1074H71.2559V16.248C71.2559 16.4434 71.2832 16.5938 71.3379 16.6992C71.3965 16.8008 71.4766 16.8691 71.5781 16.9043C71.6797 16.9395 71.7988 16.957 71.9355 16.957C72.0332 16.957 72.127 16.9512 72.2168 16.9395C72.3066 16.9277 72.3789 16.916 72.4336 16.9043L72.4395 17.9824C72.3223 18.0176 72.1855 18.0488 72.0293 18.0762C71.877 18.1035 71.7012 18.1172 71.502 18.1172C71.1777 18.1172 70.8906 18.0605 70.6406 17.9473C70.3906 17.8301 70.1953 17.6406 70.0547 17.3789C69.9141 17.1172 69.8438 16.7695 69.8438 16.3359V10.1074ZM73.0664 14.9004V14.7656C73.0664 14.3086 73.1328 13.8848 73.2656 13.4941C73.3984 13.0996 73.5898 12.7578 73.8398 12.4688C74.0938 12.1758 74.4023 11.9492 74.7656 11.7891C75.1328 11.625 75.5469 11.543 76.0078 11.543C76.4727 11.543 76.8867 11.625 77.25 11.7891C77.6172 11.9492 77.9277 12.1758 78.1816 12.4688C78.4355 12.7578 78.6289 13.0996 78.7617 13.4941C78.8945 13.8848 78.9609 14.3086 78.9609 14.7656V14.9004C78.9609 15.3574 78.8945 15.7812 78.7617 16.1719C78.6289 16.5625 78.4355 16.9043 78.1816 17.1973C77.9277 17.4863 77.6191 17.7129 77.2559 17.877C76.8926 18.0371 76.4805 18.1172 76.0195 18.1172C75.5547 18.1172 75.1387 18.0371 74.7715 17.877C74.4082 17.7129 74.0996 17.4863 73.8457 17.1973C73.5918 16.9043 73.3984 16.5625 73.2656 16.1719C73.1328 15.7812 73.0664 15.3574 73.0664 14.9004ZM74.4785 14.7656V14.9004C74.4785 15.1855 74.5078 15.4551 74.5664 15.709C74.625 15.9629 74.7168 16.1855 74.8418 16.377C74.9668 16.5684 75.127 16.7188 75.3223 16.8281C75.5176 16.9375 75.75 16.9922 76.0195 16.9922C76.2812 16.9922 76.5078 16.9375 76.6992 16.8281C76.8945 16.7188 77.0547 16.5684 77.1797 16.377C77.3047 16.1855 77.3965 15.9629 77.4551 15.709C77.5176 15.4551 77.5488 15.1855 77.5488 14.9004V14.7656C77.5488 14.4844 77.5176 14.2188 77.4551 13.9688C77.3965 13.7148 77.3027 13.4902 77.1738 13.2949C77.0488 13.0996 76.8887 12.9473 76.6934 12.8379C76.502 12.7246 76.2734 12.668 76.0078 12.668C75.7422 12.668 75.5117 12.7246 75.3164 12.8379C75.125 12.9473 74.9668 13.0996 74.8418 13.2949C74.7168 13.4902 74.625 13.7148 74.5664 13.9688C74.5078 14.2188 74.4785 14.4844 74.4785 14.7656ZM76.4004 9L78.0234 10.6172V10.6816H76.8809L75.9844 9.76172L75.0879 10.6816H73.9688V10.6055L75.5684 9H76.4004ZM83.0508 11.6602V12.6914H79.4766V11.6602H83.0508ZM80.5078 10.1074H81.9199V16.248C81.9199 16.4434 81.9473 16.5938 82.002 16.6992C82.0605 16.8008 82.1406 16.8691 82.2422 16.9043C82.3438 16.9395 82.4629 16.957 82.5996 16.957C82.6973 16.957 82.791 16.9512 82.8809 16.9395C82.9707 16.9277 83.043 16.916 83.0977 16.9043L83.1035 17.9824C82.9863 18.0176 82.8496 18.0488 82.6934 18.0762C82.541 18.1035 82.3652 18.1172 82.166 18.1172C81.8418 18.1172 81.5547 18.0605 81.3047 17.9473C81.0547 17.8301 80.8594 17.6406 80.7188 17.3789C80.5781 17.1172 80.5078 16.7695 80.5078 16.3359V10.1074ZM90.6855 16.2832C90.6855 16.1426 90.6504 16.0156 90.5801 15.9023C90.5098 15.7852 90.375 15.6797 90.1758 15.5859C89.9805 15.4922 89.6914 15.4062 89.3086 15.3281C88.9727 15.2539 88.6641 15.166 88.3828 15.0645C88.1055 14.959 87.8672 14.832 87.668 14.6836C87.4688 14.5352 87.3145 14.3594 87.2051 14.1562C87.0957 13.9531 87.041 13.7188 87.041 13.4531C87.041 13.1953 87.0977 12.9512 87.2109 12.7207C87.3242 12.4902 87.4863 12.2871 87.6973 12.1113C87.9082 11.9355 88.1641 11.7969 88.4648 11.6953C88.7695 11.5938 89.1094 11.543 89.4844 11.543C90.0156 11.543 90.4707 11.6328 90.8496 11.8125C91.2324 11.9883 91.5254 12.2285 91.7285 12.5332C91.9316 12.834 92.0332 13.1738 92.0332 13.5527H90.6211C90.6211 13.3848 90.5781 13.2285 90.4922 13.084C90.4102 12.9355 90.2852 12.8164 90.1172 12.7266C89.9492 12.6328 89.7383 12.5859 89.4844 12.5859C89.2422 12.5859 89.041 12.625 88.8809 12.7031C88.7246 12.7773 88.6074 12.875 88.5293 12.9961C88.4551 13.1172 88.418 13.25 88.418 13.3945C88.418 13.5 88.4375 13.5957 88.4766 13.6816C88.5195 13.7637 88.5898 13.8398 88.6875 13.9102C88.7852 13.9766 88.918 14.0391 89.0859 14.0977C89.2578 14.1562 89.4727 14.2129 89.7305 14.2676C90.2148 14.3691 90.6309 14.5 90.9785 14.6602C91.3301 14.8164 91.5996 15.0195 91.7871 15.2695C91.9746 15.5156 92.0684 15.8281 92.0684 16.207C92.0684 16.4883 92.0078 16.7461 91.8867 16.9805C91.7695 17.2109 91.5977 17.4121 91.3711 17.584C91.1445 17.752 90.873 17.8828 90.5566 17.9766C90.2441 18.0703 89.8926 18.1172 89.502 18.1172C88.9277 18.1172 88.4414 18.0156 88.043 17.8125C87.6445 17.6055 87.3418 17.3418 87.1348 17.0215C86.9316 16.6973 86.8301 16.3613 86.8301 16.0137H88.1953C88.2109 16.2754 88.2832 16.4844 88.4121 16.6406C88.5449 16.793 88.709 16.9043 88.9043 16.9746C89.1035 17.041 89.3086 17.0742 89.5195 17.0742C89.7734 17.0742 89.9863 17.041 90.1582 16.9746C90.3301 16.9043 90.4609 16.8105 90.5508 16.6934C90.6406 16.5723 90.6855 16.4355 90.6855 16.2832ZM97.1191 16.5059V11.6602H98.5371V18H97.2012L97.1191 16.5059ZM97.3184 15.1875L97.793 15.1758C97.793 15.6016 97.7461 15.9941 97.6523 16.3535C97.5586 16.709 97.4141 17.0195 97.2188 17.2852C97.0234 17.5469 96.7734 17.752 96.4688 17.9004C96.1641 18.0449 95.7988 18.1172 95.373 18.1172C95.0645 18.1172 94.7812 18.0723 94.5234 17.9824C94.2656 17.8926 94.043 17.7539 93.8555 17.5664C93.6719 17.3789 93.5293 17.1348 93.4277 16.834C93.3262 16.5332 93.2754 16.1738 93.2754 15.7559V11.6602H94.6875V15.7676C94.6875 15.998 94.7148 16.1914 94.7695 16.3477C94.8242 16.5 94.8984 16.623 94.9922 16.7168C95.0859 16.8105 95.1953 16.877 95.3203 16.916C95.4453 16.9551 95.5781 16.9746 95.7188 16.9746C96.1211 16.9746 96.4375 16.8965 96.668 16.7402C96.9023 16.5801 97.0684 16.3652 97.166 16.0957C97.2676 15.8262 97.3184 15.5234 97.3184 15.1875ZM101.402 12.8672V18H99.9902V11.6602H101.338L101.402 12.8672ZM103.342 11.6191L103.33 12.9316C103.244 12.916 103.15 12.9043 103.049 12.8965C102.951 12.8887 102.854 12.8848 102.756 12.8848C102.514 12.8848 102.301 12.9199 102.117 12.9902C101.934 13.0566 101.779 13.1543 101.654 13.2832C101.533 13.4082 101.439 13.5605 101.373 13.7402C101.307 13.9199 101.268 14.1211 101.256 14.3438L100.934 14.3672C100.934 13.9688 100.973 13.5996 101.051 13.2598C101.129 12.9199 101.246 12.6211 101.402 12.3633C101.562 12.1055 101.762 11.9043 102 11.7598C102.242 11.6152 102.521 11.543 102.838 11.543C102.924 11.543 103.016 11.5508 103.113 11.5664C103.215 11.582 103.291 11.5996 103.342 11.6191Z" fill="white"/>
</svg>
