<svg width="25" height="25" viewBox="0 0 25 25" fill="none" xmlns="http://www.w3.org/2000/svg">
<path d="M3.2019 5.96973V19.7148H21.7976V6.43262L21.0232 6.94336L12.7292 12.4033C12.6678 12.4354 12.6141 12.461 12.5671 12.4795C12.5659 12.48 12.5467 12.4873 12.4998 12.4873C12.4529 12.4873 12.4336 12.48 12.4324 12.4795C12.3861 12.4613 12.3336 12.4357 12.2732 12.4043L4.2019 7.0918V6.625L12.2263 11.8809L12.4998 12.0596L12.7732 11.8809L21.4675 6.2041L22.5457 5.49902C22.5665 5.59057 22.5788 5.68548 22.5789 5.78516V19.2148C22.5789 19.5552 22.4592 19.8453 22.196 20.1074C21.933 20.3697 21.6409 20.4893 21.2976 20.4893H3.7019C3.36114 20.4893 3.0712 20.3702 2.80933 20.1084L2.80835 20.1074C2.54652 19.8455 2.42749 19.5556 2.42749 19.2148V5.78516C2.4275 5.68054 2.43975 5.581 2.46265 5.48535L3.2019 5.96973ZM3.7019 4.50488H21.2976C21.6402 4.50488 21.932 4.62456 22.1951 4.8877V4.88867C22.3201 5.01368 22.4125 5.14497 22.4753 5.28516H2.53101C2.59368 5.14479 2.6847 5.01272 2.80933 4.8877C3.07144 4.62454 3.36153 4.50488 3.7019 4.50488Z" fill="white" stroke="white"/>
</svg>
