<svg width="55" height="55" viewBox="0 0 55 55" fill="none" xmlns="http://www.w3.org/2000/svg">
<path d="M27.497 27.2646C24.8739 27.2646 22.7292 26.4315 21.0632 24.7655C19.3968 23.0991 18.5636 20.9543 18.5636 18.3311C18.5636 15.7079 19.3968 13.5623 21.0632 11.8943C22.7292 10.226 24.8739 9.39185 27.497 9.39185C30.1202 9.39185 32.2681 10.226 33.9406 11.8943C35.6136 13.5623 36.45 15.7079 36.45 18.3311C36.45 20.9543 35.6136 23.0991 33.9406 24.7655C32.2681 26.4315 30.1202 27.2646 27.497 27.2646ZM8.82397 42.4509V40.5986C8.82397 39.0896 9.20439 37.7911 9.96522 36.7034C10.7257 35.6152 11.7078 34.7889 12.9117 34.2243C15.4891 33.0693 17.9658 32.2031 20.3419 31.6256C22.7176 31.0481 25.1024 30.7593 27.4965 30.7593C29.9077 30.7593 32.2908 31.0576 34.6459 31.6542C37.001 32.2508 39.4611 33.1112 42.0262 34.2352C43.282 34.7929 44.29 35.6141 45.0501 36.6988C45.8098 37.7835 46.1896 39.0834 46.1896 40.5986V42.4509C46.1896 43.5237 45.8084 44.4425 45.0461 45.2072C44.2837 45.9718 43.3592 46.3541 42.2726 46.3541H12.7273C11.6444 46.3541 10.7232 45.9718 9.96351 45.2072C9.20382 44.4425 8.82397 43.5237 8.82397 42.4509ZM12.7273 42.4509H42.2726V40.6536C42.2726 40.0482 42.0911 39.4711 41.7283 38.9223C41.3654 38.373 40.9167 37.9663 40.3819 37.702C37.9738 36.545 35.769 35.7516 33.7676 35.3215C31.7662 34.8914 29.6747 34.6764 27.493 34.6764C25.3297 34.6764 23.2237 34.8914 21.1749 35.3215C19.1262 35.7516 16.9233 36.5443 14.5663 37.6997C14.0278 37.9643 13.5866 38.3713 13.2429 38.9205C12.8991 39.4702 12.7273 40.0479 12.7273 40.6536V42.4509ZM27.497 23.3613C28.9519 23.3613 30.155 22.8865 31.1064 21.937C32.0575 20.9871 32.533 19.7844 32.533 18.3288C32.533 16.8694 32.0582 15.6657 31.1087 14.7177C30.1596 13.7697 28.9576 13.2957 27.5028 13.2957C26.0479 13.2957 24.8448 13.7699 23.8934 14.7183C22.9424 15.667 22.4668 16.8682 22.4668 18.3219C22.4668 19.7798 22.9416 20.9841 23.8911 21.9347C24.8402 22.8858 26.0422 23.3613 27.497 23.3613Z" fill="#3B82F6"/>
</svg>
