<svg width="200" height="21" viewBox="0 0 200 21" fill="none" xmlns="http://www.w3.org/2000/svg">
<path fill-rule="evenodd" clip-rule="evenodd" d="M0.515101 17.9873C-0.171701 18.6765 -0.1717 19.7939 0.515101 20.4831C1.2019 21.1723 2.31543 21.1723 3.00223 20.4831L20.4121 3.01267C21.0989 2.32348 21.0989 1.20608 20.4121 0.516892C19.7253 -0.172298 18.6118 -0.172297 17.925 0.516892L0.515101 17.9873ZM20.4121 17.9873C19.7253 18.6765 19.7253 19.7939 20.4121 20.4831C21.0989 21.1723 22.2124 21.1723 22.8992 20.4831L40.3091 3.01267C40.9959 2.32348 40.9959 1.20608 40.3091 0.516892C39.6223 -0.172298 38.5088 -0.172297 37.822 0.516892L20.4121 17.9873ZM40.309 20.4831C39.6222 19.7939 39.6222 18.6765 40.309 17.9873L57.719 0.516892C58.4058 -0.172297 59.5193 -0.172298 60.2061 0.516892C60.8929 1.20608 60.8929 2.32348 60.2061 3.01267L42.7962 20.4831C42.1094 21.1723 40.9958 21.1723 40.309 20.4831ZM60.206 17.9873C59.5192 18.6765 59.5192 19.7939 60.206 20.4831C60.8928 21.1723 62.0063 21.1723 62.6931 20.4831L80.1031 3.01267C80.7899 2.32348 80.7899 1.20608 80.1031 0.516892C79.4163 -0.172298 78.3027 -0.172297 77.6159 0.516892L60.206 17.9873ZM80.103 20.4831C79.4162 19.7939 79.4162 18.6765 80.103 17.9873L97.5129 0.516892C98.1997 -0.172297 99.3132 -0.172298 100 0.516892C100.687 1.20608 100.687 2.32348 100 3.01267L82.5901 20.4831C81.9033 21.1723 80.7898 21.1723 80.103 20.4831ZM100 17.9873C99.3132 18.6765 99.3132 19.7939 100 20.4831C100.687 21.1723 101.8 21.1723 102.487 20.4831L119.897 3.01267C120.584 2.32348 120.584 1.20608 119.897 0.516892C119.21 -0.172298 118.097 -0.172297 117.41 0.516892L100 17.9873ZM119.897 20.4831C119.21 19.7939 119.21 18.6765 119.897 17.9873L137.307 0.516892C137.994 -0.172297 139.107 -0.172298 139.794 0.516892C140.481 1.20608 140.481 2.32348 139.794 3.01267L122.384 20.4831C121.697 21.1723 120.584 21.1723 119.897 20.4831ZM139.794 17.9873C139.107 18.6765 139.107 19.7939 139.794 20.4831C140.481 21.1723 141.594 21.1723 142.281 20.4831L159.691 3.01267C160.378 2.32348 160.378 1.20608 159.691 0.516892C159.004 -0.172298 157.891 -0.172297 157.204 0.516892L139.794 17.9873ZM159.691 20.4831C159.004 19.7939 159.004 18.6765 159.691 17.9873L177.101 0.516892C177.788 -0.172297 178.901 -0.172298 179.588 0.516892C180.275 1.20608 180.275 2.32348 179.588 3.01267L162.178 20.4831C161.491 21.1723 160.378 21.1723 159.691 20.4831ZM179.588 17.9873C178.901 18.6765 178.901 19.7939 179.588 20.4831C180.275 21.1723 181.388 21.1723 182.075 20.4831L199.485 3.01267C200.172 2.32348 200.172 1.20608 199.485 0.516892C198.798 -0.172298 197.685 -0.172297 196.998 0.516892L179.588 17.9873Z" fill="#417AF9"/>
</svg>
