<svg width="50" height="50" viewBox="0 0 50 50" fill="none" xmlns="http://www.w3.org/2000/svg">
<circle cx="25" cy="25" r="25" fill="white"/>
<g clip-path="url(#clip0_9510_273)">
<path d="M18.7678 12.8321C20.2022 12.8928 21.8872 13.13 23.8229 13.5435C27.6688 14.363 30.8363 15.9622 33.1536 18.8504C33.2089 18.9187 33.2119 18.9879 33.1628 19.0581L32.8313 19.5504C32.8168 19.572 32.8074 19.5961 32.8037 19.6211C32.8 19.6461 32.8021 19.6715 32.8099 19.6955C32.9204 20.0294 33.0564 20.2912 33.2181 20.4809C33.2752 20.5483 33.3558 20.5952 33.4464 20.6139C33.537 20.6325 33.6319 20.6217 33.7153 20.5833L38.0891 18.5516C38.1327 18.5324 38.1692 18.5016 38.1938 18.4631C38.2184 18.4245 38.23 18.3801 38.2272 18.3354C38.2006 17.7378 37.8671 17.3698 37.2266 17.2313C37.1277 17.2092 37.0413 17.1545 36.9841 17.0776C34.5041 13.7673 31.1575 11.5118 26.9444 10.311C23.9672 9.46301 21.0892 9.00299 18.3105 8.9309C16.5916 8.88537 14.925 8.87778 13.3106 8.90813C13.196 8.91003 13.1387 8.96505 13.1387 9.07318V39.5118C13.1387 39.5453 13.1528 39.5774 13.178 39.6013C13.2033 39.6253 13.2376 39.6391 13.2737 39.6398C15.3588 39.6949 17.4418 39.6683 19.5228 39.5602C25.7965 39.2329 31.7602 37.1016 35.8792 32.6569C35.9631 32.5678 36.0674 32.5393 36.1922 32.5715L36.5698 32.6711C36.6212 32.6842 36.6759 32.6816 36.7256 32.6637C36.7754 32.6457 36.8176 32.6134 36.846 32.5715L37.3371 31.8431C37.361 31.8081 37.3771 31.769 37.3845 31.7281C37.3919 31.6872 37.3904 31.6453 37.3801 31.6048C37.3698 31.5643 37.351 31.5261 37.3246 31.4922C37.2983 31.4584 37.2649 31.4297 37.2266 31.4077L33.0186 28.9663C32.8324 28.8581 32.6809 28.8904 32.5643 29.063L32.0057 29.8911C31.932 30.0011 31.9545 30.0902 32.0732 30.1585L32.285 30.2809C32.3832 30.3378 32.3935 30.4061 32.3157 30.4858C29.007 33.9289 23.7892 35.5508 18.7586 35.6817C18.6399 35.6855 18.5806 35.6324 18.5806 35.5224V12.9972C18.5806 12.8814 18.643 12.8264 18.7678 12.8321Z" stroke="#A0BDFC" stroke-width="2"/>
<path d="M38.1353 19.152C38.0207 19.0477 37.8918 19.0287 37.7486 19.0951L34.2864 20.7029C34.2112 20.7376 34.1495 20.7935 34.11 20.8628C34.0704 20.9321 34.0548 21.0115 34.0654 21.0898C34.1186 21.473 34.0787 21.8325 33.9457 22.1683C33.6122 23.0087 33.4628 24.0388 33.4976 25.2585C33.516 25.9054 33.7196 26.4053 34.1084 26.7581C34.6813 27.276 35.2011 27.6478 35.6676 27.8736C35.7492 27.913 35.8411 27.9304 35.9329 27.924C36.0246 27.9176 36.1126 27.8875 36.1869 27.8373C36.2613 27.787 36.319 27.7185 36.3536 27.6394C36.3882 27.5604 36.3983 27.4739 36.3828 27.3898C36.2723 26.779 35.9264 26.2801 35.3453 25.8931C35.2635 25.8381 35.2103 25.766 35.1857 25.6768C35.0568 25.2007 35.0445 24.8791 35.1489 24.7122C36.2436 22.948 37.456 21.3905 38.786 20.0398C38.8254 20 38.8467 19.9476 38.8455 19.8936C38.8444 19.8396 38.8209 19.788 38.7799 19.7496L38.1353 19.152Z" stroke="#A0BDFC" stroke-width="2"/>
<path d="M40.9525 24.7634L41.9562 23.2752C42.0199 23.1809 42.0559 23.065 42.0613 22.9369C42.0666 22.8088 42.0411 22.6722 41.9869 22.5382C41.9459 22.4377 41.9234 22.3855 41.9193 22.3817C41.682 22.0725 41.4651 22.0545 41.2686 22.3277L40.0164 24.0805C39.9937 24.113 39.9582 24.136 39.9174 24.1445C39.8767 24.153 39.834 24.1464 39.7985 24.126L39.7217 24.0805C39.6562 24.0426 39.644 23.9932 39.6849 23.9325L40.9648 22.0374C41.03 21.9408 41.0667 21.8302 41.071 21.7167C41.0753 21.6033 41.0471 21.4911 40.9893 21.3915C40.9402 21.3042 40.9147 21.2596 40.9126 21.2577C40.6323 20.9314 40.3775 20.9229 40.1484 21.2321L38.5738 23.3549C38.5625 23.3699 38.5476 23.3822 38.5305 23.3906C38.5134 23.399 38.4945 23.4034 38.4756 23.4033H38.3559C38.3372 23.4033 38.3189 23.3988 38.3028 23.3901C38.2866 23.3813 38.2733 23.3688 38.2643 23.3536C38.2552 23.3385 38.2506 23.3214 38.2511 23.3041C38.2515 23.2868 38.257 23.27 38.2669 23.2553L39.9458 20.7711C40.0767 20.5739 40.0818 20.3747 39.9611 20.1736C39.9284 20.1167 39.9038 20.0816 39.8875 20.0683C39.6051 19.8388 39.3554 19.8369 39.1385 20.0626C37.8413 21.4209 36.6268 23.003 35.4953 24.809C35.4266 24.92 35.3976 25.0484 35.4125 25.1757C35.4274 25.303 35.4854 25.4226 35.5782 25.5175C36.0907 26.0439 36.7445 26.7012 36.7169 27.4866C36.6862 28.2777 35.9219 28.4313 35.2712 28.0358C34.8395 27.774 34.5397 27.5549 34.3719 27.3785C34.3547 27.3599 34.3321 27.3461 34.3068 27.3388C34.2816 27.3315 34.2546 27.3309 34.229 27.3372C34.2034 27.3434 34.1802 27.3562 34.162 27.3741C34.1439 27.3919 34.1315 27.4142 34.1264 27.4382C34.0384 27.8461 33.8737 28.2359 33.6322 28.6077C33.5988 28.6592 33.5884 28.7208 33.6034 28.7789C33.6183 28.837 33.6574 28.887 33.712 28.9179L37.2785 30.9866C37.3604 31.034 37.4474 31.0445 37.5394 31.0179C37.8177 30.9382 37.9968 30.7694 38.0766 30.5114C38.1052 30.4203 38.0888 30.3369 38.0275 30.261C37.6254 29.763 38.0397 29.3732 38.3804 28.9663C38.4439 28.8885 38.448 28.8088 38.3927 28.7272C37.9384 28.0529 38.1779 27.3898 39.1048 27.2732C39.1483 27.268 39.1892 27.2521 39.2228 27.2275C39.2564 27.2029 39.2814 27.1704 39.2951 27.1338C39.4813 26.65 39.8373 26.3674 40.3632 26.2858C40.4655 26.2687 40.5443 26.2194 40.5995 26.1378L40.9372 25.6398C40.9985 25.5488 41.0835 25.489 41.1919 25.4606C41.552 25.3619 41.9071 25.3951 42.257 25.5602C42.278 25.5703 42.3012 25.5761 42.3249 25.5771C42.3486 25.578 42.3723 25.5742 42.3942 25.5658C42.4162 25.5574 42.4359 25.5446 42.4519 25.5284C42.468 25.5122 42.48 25.4929 42.4872 25.472C42.6979 24.8535 42.7358 24.2579 42.6007 23.685C42.5209 23.3359 42.3787 23.3132 42.1741 23.6167L41.2871 24.9285C41.24 24.9968 41.1848 25.0129 41.1213 24.9768L40.9863 24.8972C40.9269 24.863 40.9157 24.8184 40.9525 24.7634Z" stroke="#A0BDFC" stroke-width="2"/>
<path d="M42.6955 26.9936C42.7778 26.902 42.8175 26.7838 42.8058 26.6651C42.7942 26.5463 42.7321 26.4368 42.6333 26.3604L41.9353 25.8213C41.8864 25.7835 41.8299 25.755 41.7691 25.7374C41.7083 25.7199 41.6444 25.7136 41.581 25.7189C41.5175 25.7243 41.4559 25.7412 41.3995 25.7686C41.3431 25.796 41.2931 25.8335 41.2523 25.8789L41.1187 26.0276C41.0364 26.1192 40.9967 26.2373 41.0083 26.3561C41.02 26.4748 41.0821 26.5844 41.1809 26.6607L41.8789 27.1999C41.9278 27.2377 41.9843 27.2662 42.0451 27.2838C42.1059 27.3013 42.1698 27.3076 42.2332 27.3023C42.2967 27.2969 42.3583 27.28 42.4147 27.2526C42.4711 27.2251 42.5211 27.1877 42.5619 27.1423L42.6955 26.9936Z" stroke="#A0BDFC" stroke-width="2"/>
<path d="M41.8595 28.2272C41.9388 28.1344 41.9752 28.0161 41.9605 27.8984C41.9458 27.7807 41.8813 27.6732 41.7811 27.5996L40.6361 26.7583C40.536 26.6847 40.4084 26.651 40.2814 26.6646C40.1545 26.6782 40.0386 26.738 39.9592 26.8309L39.8371 26.9736C39.7578 27.0665 39.7214 27.1848 39.7361 27.3025C39.7508 27.4202 39.8153 27.5276 39.9155 27.6012L41.0604 28.4426C41.1606 28.5162 41.2882 28.5498 41.4152 28.5362C41.5421 28.5226 41.658 28.4628 41.7374 28.3699L41.8595 28.2272Z" stroke="#A0BDFC" stroke-width="2"/>
<path d="M40.8836 29.457C40.9303 29.4056 40.9657 29.3461 40.9876 29.282C41.0096 29.2179 41.0177 29.1504 41.0115 29.0834C41.0053 29.0164 40.9849 28.9511 40.9515 28.8914C40.9181 28.8317 40.8723 28.7787 40.8168 28.7353L39.4927 27.7016C39.4372 27.6583 39.3731 27.6255 39.3039 27.6051C39.2347 27.5848 39.1619 27.5773 39.0897 27.583C39.0174 27.5888 38.947 27.6077 38.8826 27.6386C38.8182 27.6696 38.761 27.712 38.7142 27.7635L38.6826 27.7983C38.6359 27.8497 38.6005 27.9092 38.5786 27.9733C38.5567 28.0374 38.5486 28.1049 38.5548 28.1719C38.561 28.239 38.5813 28.3042 38.6147 28.3639C38.6481 28.4236 38.6939 28.4767 38.7494 28.52L40.0735 29.5537C40.129 29.5971 40.1931 29.6298 40.2623 29.6502C40.3315 29.6705 40.4043 29.678 40.4766 29.6723C40.5488 29.6665 40.6192 29.6476 40.6836 29.6167C40.748 29.5857 40.8052 29.5433 40.852 29.4918L40.8836 29.457Z" stroke="#A0BDFC" stroke-width="2"/>
<path d="M39.6203 30.3798C39.6726 30.322 39.7086 30.2524 39.7261 30.175C39.7436 30.0976 39.7423 30.0139 39.7224 29.9286C39.7024 29.8434 39.6641 29.7584 39.6097 29.6783C39.5552 29.5983 39.4857 29.5248 39.4051 29.4621C39.2424 29.3355 39.0443 29.2605 38.8545 29.2535C38.6647 29.2466 38.4986 29.3083 38.3929 29.425C38.3406 29.4829 38.3047 29.5525 38.2872 29.6299C38.2696 29.7073 38.2709 29.791 38.2909 29.8762C38.3109 29.9614 38.3492 30.0465 38.4036 30.1266C38.458 30.2066 38.5275 30.2801 38.6081 30.3428C38.7709 30.4694 38.9689 30.5444 39.1588 30.5514C39.3486 30.5583 39.5146 30.4966 39.6203 30.3798Z" stroke="#A0BDFC" stroke-width="2"/>
<path d="M43 6V41H12V6H43ZM18.7678 12.8321C20.2022 12.8928 21.8873 13.1299 23.823 13.5435C27.6688 14.363 30.8363 15.9622 33.1537 18.8504C33.2089 18.9187 33.212 18.9879 33.1629 19.0581L32.8314 19.5504C32.8169 19.572 32.8074 19.596 32.8037 19.6211C32.8 19.6461 32.8021 19.6715 32.8099 19.6955C32.9204 20.0294 33.0565 20.2912 33.2181 20.4809C33.2752 20.5483 33.3559 20.5952 33.4464 20.6139C33.537 20.6325 33.632 20.6217 33.7153 20.5833L38.0891 18.5516C38.1327 18.5324 38.1692 18.5016 38.1938 18.4631C38.2184 18.4245 38.2301 18.3801 38.2272 18.3354C38.2006 17.7378 37.8671 17.3698 37.2266 17.2313C37.1277 17.2092 37.0414 17.1545 36.9842 17.0776C34.5042 13.7673 31.1576 11.5118 26.9445 10.311C23.9672 9.46301 21.0892 9.00298 18.3105 8.93089C16.5917 8.88537 14.925 8.87778 13.3106 8.90813C13.196 8.91003 13.1387 8.96504 13.1387 9.07317V39.5118C13.1387 39.5453 13.1528 39.5774 13.1781 39.6013C13.2033 39.6253 13.2377 39.6391 13.2738 39.6398C15.3588 39.6949 17.4419 39.6683 19.5229 39.5602C25.7965 39.2329 31.7602 37.1016 35.8792 32.6569C35.9631 32.5678 36.0675 32.5393 36.1923 32.5715L36.5698 32.6711C36.6213 32.6842 36.6759 32.6816 36.7257 32.6637C36.7754 32.6457 36.8176 32.6134 36.846 32.5715L37.3371 31.8431C37.361 31.8081 37.3771 31.769 37.3845 31.7281C37.3919 31.6872 37.3904 31.6453 37.3801 31.6048C37.3699 31.5643 37.351 31.5261 37.3247 31.4922C37.2983 31.4584 37.265 31.4297 37.2266 31.4077L33.0186 28.9663C32.8324 28.8581 32.681 28.8904 32.5644 29.063L32.0057 29.8911C31.9321 30.0011 31.9546 30.0902 32.0733 30.1585L32.285 30.2809C32.3833 30.3378 32.3935 30.4061 32.3157 30.4858C29.007 33.9289 23.7892 35.5508 18.7586 35.6817C18.6399 35.6855 18.5806 35.6324 18.5806 35.5224V12.9972C18.5806 12.8814 18.643 12.8264 18.7678 12.8321ZM38.1351 19.152C38.0206 19.0477 37.8916 19.0287 37.7484 19.0951L34.2862 20.7028C34.211 20.7376 34.1494 20.7934 34.1098 20.8628C34.0702 20.9321 34.0546 21.0115 34.0652 21.0898C34.1184 21.473 34.0785 21.8325 33.9455 22.1683C33.612 23.0087 33.4626 24.0388 33.4974 25.2585C33.5158 25.9054 33.7194 26.4053 34.1082 26.7581C34.6812 27.276 35.2009 27.6478 35.6674 27.8736C35.7491 27.913 35.8409 27.9304 35.9327 27.924C36.0244 27.9176 36.1124 27.8875 36.1868 27.8373C36.2611 27.787 36.3188 27.7185 36.3534 27.6394C36.388 27.5604 36.3981 27.4739 36.3826 27.3898C36.2721 26.779 35.9263 26.2801 35.3451 25.8931C35.2633 25.8381 35.2101 25.766 35.1855 25.6768C35.0566 25.2007 35.0444 24.8791 35.1487 24.7122C36.2434 22.948 37.4558 21.3905 38.7858 20.0398C38.8252 20 38.8465 19.9476 38.8453 19.8936C38.8442 19.8396 38.8207 19.788 38.7797 19.7496L38.1351 19.152ZM40.9528 24.7634L41.9564 23.2752C42.0202 23.1809 42.0562 23.065 42.0615 22.9369C42.0669 22.8088 42.0414 22.6722 41.9871 22.5382C41.9462 22.4377 41.9237 22.3855 41.9196 22.3817C41.6822 22.0725 41.4653 22.0545 41.2689 22.3276L40.0166 24.0805C39.994 24.113 39.9584 24.136 39.9177 24.1445C39.877 24.153 39.8342 24.1464 39.7987 24.126L39.722 24.0805C39.6565 24.0425 39.6442 23.9932 39.6851 23.9325L40.9651 22.0374C41.0303 21.9408 41.0669 21.8302 41.0712 21.7167C41.0755 21.6033 41.0474 21.4911 40.9896 21.3915C40.9405 21.3042 40.9149 21.2596 40.9129 21.2577C40.6325 20.9314 40.3778 20.9229 40.1486 21.2321L38.5741 23.3549C38.5627 23.3699 38.5479 23.3821 38.5307 23.3906C38.5136 23.399 38.4948 23.4033 38.4758 23.4033H38.3561C38.3375 23.4033 38.3191 23.3988 38.303 23.39C38.2869 23.3813 38.2736 23.3687 38.2645 23.3536C38.2554 23.3385 38.2509 23.3214 38.2513 23.3041C38.2518 23.2868 38.2572 23.27 38.2671 23.2553L39.946 20.7711C40.077 20.5738 40.0821 20.3747 39.9614 20.1736C39.9286 20.1167 39.9041 20.0816 39.8877 20.0683C39.6053 19.8388 39.3557 19.8369 39.1388 20.0626C37.8415 21.4209 36.6271 23.003 35.4955 24.8089C35.4269 24.92 35.3979 25.0484 35.4128 25.1757C35.4277 25.303 35.4857 25.4226 35.5784 25.5175C36.091 26.0439 36.7448 26.7012 36.7171 27.4866C36.6864 28.2776 35.9222 28.4313 35.2715 28.0358C34.8397 27.774 34.54 27.5549 34.3722 27.3785C34.3549 27.3598 34.3324 27.3461 34.3071 27.3388C34.2818 27.3315 34.2549 27.3309 34.2293 27.3372C34.2037 27.3434 34.1805 27.3562 34.1623 27.374C34.1442 27.3919 34.1318 27.4141 34.1266 27.4382C34.0386 27.8461 33.8739 28.2359 33.6325 28.6077C33.599 28.6592 33.5887 28.7208 33.6036 28.7789C33.6186 28.837 33.6576 28.8869 33.7123 28.9179L37.2788 30.9866C37.3607 31.034 37.4476 31.0444 37.5397 31.0179C37.818 30.9382 37.997 30.7694 38.0768 30.5114C38.1055 30.4203 38.0891 30.3369 38.0277 30.261C37.6256 29.763 38.04 29.3732 38.3807 28.9663C38.4441 28.8885 38.4482 28.8088 38.393 28.7272C37.9387 28.0528 38.1781 27.3898 39.105 27.2732C39.1486 27.2679 39.1894 27.2521 39.223 27.2275C39.2567 27.2029 39.2817 27.1704 39.2953 27.1337C39.4816 26.65 39.8376 26.3673 40.3635 26.2858C40.4658 26.2687 40.5446 26.2194 40.5998 26.1378L40.9374 25.6398C40.9988 25.5488 41.0837 25.489 41.1922 25.4606C41.5523 25.3619 41.9073 25.3951 42.2572 25.5602C42.2783 25.5703 42.3015 25.5761 42.3252 25.5771C42.3489 25.578 42.3726 25.5742 42.3945 25.5658C42.4164 25.5574 42.4361 25.5446 42.4522 25.5284C42.4682 25.5122 42.4803 25.4929 42.4874 25.472C42.6982 24.8535 42.736 24.2579 42.601 23.685C42.5212 23.3359 42.379 23.3131 42.1744 23.6167L41.2873 24.9285C41.2403 24.9967 41.185 25.0129 41.1216 24.9768L40.9865 24.8972C40.9272 24.863 40.9159 24.8184 40.9528 24.7634ZM42.6957 26.9936C42.778 26.902 42.8177 26.7838 42.8061 26.6651C42.7944 26.5463 42.7324 26.4367 42.6336 26.3604L41.9356 25.8212C41.8866 25.7834 41.8302 25.755 41.7694 25.7374C41.7085 25.7198 41.6446 25.7136 41.5812 25.7189C41.5178 25.7243 41.4561 25.7411 41.3997 25.7686C41.3433 25.796 41.2933 25.8335 41.2526 25.8789L41.1189 26.0275C41.0366 26.1191 40.9969 26.2373 41.0086 26.3561C41.0202 26.4748 41.0823 26.5844 41.1811 26.6607L41.8791 27.1999C41.928 27.2377 41.9845 27.2662 42.0453 27.2837C42.1061 27.3013 42.17 27.3076 42.2335 27.3022C42.2969 27.2969 42.3586 27.28 42.4149 27.2526C42.4713 27.2251 42.5213 27.1876 42.5621 27.1423L42.6957 26.9936ZM41.8596 28.2272C41.939 28.1344 41.9753 28.0161 41.9606 27.8984C41.9459 27.7807 41.8814 27.6732 41.7812 27.5996L40.6363 26.7583C40.5361 26.6847 40.4085 26.651 40.2816 26.6646C40.1546 26.6782 40.0387 26.738 39.9593 26.8309L39.8373 26.9736C39.7579 27.0664 39.7215 27.1847 39.7362 27.3024C39.7509 27.4201 39.8154 27.5276 39.9156 27.6012L41.0606 28.4425C41.1607 28.5161 41.2883 28.5498 41.4153 28.5362C41.5422 28.5226 41.6581 28.4628 41.7375 28.3699L41.8596 28.2272ZM40.8839 29.457C40.9306 29.4056 40.9659 29.3461 40.9879 29.282C41.0098 29.2179 41.0179 29.1504 41.0117 29.0834C41.0055 29.0163 40.9851 28.9511 40.9517 28.8914C40.9184 28.8317 40.8726 28.7786 40.8171 28.7353L39.493 27.7016C39.4375 27.6582 39.3733 27.6255 39.3042 27.6051C39.235 27.5848 39.1622 27.5773 39.0899 27.583C39.0176 27.5888 38.9473 27.6077 38.8829 27.6386C38.8184 27.6696 38.7612 27.712 38.7145 27.7635L38.6829 27.7983C38.6361 27.8497 38.6008 27.9092 38.5789 27.9733C38.5569 28.0374 38.5488 28.1049 38.555 28.1719C38.5612 28.2389 38.5816 28.3042 38.615 28.3639C38.6484 28.4236 38.6941 28.4766 38.7496 28.52L40.0738 29.5537C40.1293 29.597 40.1934 29.6298 40.2626 29.6501C40.3317 29.6705 40.4045 29.678 40.4768 29.6722C40.5491 29.6665 40.6195 29.6476 40.6839 29.6167C40.7483 29.5857 40.8055 29.5433 40.8522 29.4918L40.8839 29.457ZM39.6205 30.3798C39.6728 30.322 39.7088 30.2524 39.7263 30.175C39.7438 30.0976 39.7425 30.0139 39.7226 29.9287C39.7026 29.8434 39.6643 29.7584 39.6099 29.6783C39.5554 29.5983 39.4859 29.5248 39.4053 29.4621C39.2426 29.3355 39.0445 29.2605 38.8547 29.2535C38.6649 29.2466 38.4989 29.3083 38.3932 29.425C38.3408 29.4829 38.3049 29.5525 38.2874 29.6299C38.2698 29.7073 38.2711 29.791 38.2911 29.8762C38.3111 29.9614 38.3494 30.0465 38.4038 30.1266C38.4582 30.2066 38.5277 30.2801 38.6083 30.3428C38.7711 30.4694 38.9691 30.5444 39.159 30.5514C39.3488 30.5583 39.5148 30.4966 39.6205 30.3798Z" fill="white"/>
<path d="M18.5806 12.9972V35.5224C18.5806 35.6324 18.6399 35.6855 18.7586 35.6817C23.7892 35.5508 29.007 33.9289 32.3157 30.4858C32.3935 30.4061 32.3832 30.3378 32.285 30.2809L32.0732 30.1585C31.9545 30.0902 31.932 30.0011 32.0057 29.8911L32.5643 29.063C32.6809 28.8904 32.8324 28.8581 33.0186 28.9663L37.2266 31.4077C37.2649 31.4297 37.2983 31.4584 37.3246 31.4922C37.351 31.5261 37.3698 31.5643 37.3801 31.6048C37.3904 31.6453 37.3919 31.6872 37.3845 31.7281C37.3771 31.769 37.361 31.8081 37.3371 31.8431L36.846 32.5715C36.8176 32.6134 36.7754 32.6457 36.7256 32.6637C36.6759 32.6816 36.6212 32.6842 36.5698 32.6711L36.1922 32.5715C36.0674 32.5393 35.9631 32.5678 35.8792 32.6569C31.7602 37.1016 25.7965 39.2329 19.5228 39.5602C17.4418 39.6683 15.3588 39.6949 13.2737 39.6398C13.2376 39.6391 13.2033 39.6253 13.178 39.6013C13.1528 39.5774 13.1387 39.5453 13.1387 39.5118V9.07318C13.1387 8.96505 13.196 8.91003 13.3106 8.90813C14.925 8.87778 16.5916 8.88537 18.3105 8.9309C21.0892 9.00299 23.9672 9.46301 26.9444 10.311C31.1575 11.5118 34.5041 13.7673 36.9841 17.0776C37.0413 17.1545 37.1277 17.2092 37.2266 17.2313C37.8671 17.3698 38.2006 17.7378 38.2272 18.3354C38.23 18.3801 38.2184 18.4245 38.1938 18.4631C38.1692 18.5016 38.1327 18.5324 38.0891 18.5516L33.7153 20.5833C33.6319 20.6217 33.537 20.6325 33.4464 20.6139C33.3558 20.5952 33.2752 20.5483 33.2181 20.4809C33.0564 20.2912 32.9204 20.0294 32.8099 19.6955C32.8021 19.6715 32.8 19.6461 32.8037 19.6211C32.8074 19.5961 32.8168 19.572 32.8313 19.5504L33.1628 19.0581C33.2119 18.9879 33.2089 18.9187 33.1536 18.8504C30.8363 15.9622 27.6688 14.363 23.8229 13.5435C21.8872 13.13 20.2022 12.8928 18.7678 12.8321C18.643 12.8264 18.5806 12.8814 18.5806 12.9972Z" fill="#417AF9"/>
<path d="M38.1353 19.152L38.7799 19.7496C38.8209 19.788 38.8444 19.8396 38.8455 19.8936C38.8467 19.9476 38.8254 20 38.786 20.0398C37.456 21.3905 36.2436 22.948 35.1489 24.7122C35.0445 24.8791 35.0568 25.2007 35.1857 25.6768C35.2103 25.766 35.2635 25.8381 35.3453 25.8931C35.9264 26.2801 36.2723 26.779 36.3828 27.3898C36.3983 27.4739 36.3882 27.5604 36.3536 27.6394C36.319 27.7185 36.2613 27.787 36.1869 27.8373C36.1126 27.8875 36.0246 27.9176 35.9329 27.924C35.8411 27.9304 35.7492 27.913 35.6676 27.8736C35.2011 27.6478 34.6813 27.276 34.1084 26.7581C33.7196 26.4053 33.516 25.9054 33.4976 25.2585C33.4628 24.0388 33.6122 23.0087 33.9457 22.1683C34.0787 21.8325 34.1186 21.473 34.0654 21.0898C34.0548 21.0115 34.0704 20.9321 34.11 20.8628C34.1495 20.7935 34.2112 20.7376 34.2864 20.7028L37.7486 19.0951C37.8918 19.0287 38.0207 19.0477 38.1353 19.152Z" fill="#417AF9"/>
<path d="M40.953 24.7634C40.9162 24.8184 40.9274 24.863 40.9868 24.8972L41.1218 24.9768C41.1852 25.0129 41.2405 24.9968 41.2876 24.9285L42.1746 23.6167C42.3792 23.3132 42.5214 23.3359 42.6012 23.685C42.7363 24.2579 42.6984 24.8535 42.4877 25.472C42.4805 25.4929 42.4684 25.5122 42.4524 25.5284C42.4363 25.5446 42.4167 25.5574 42.3947 25.5658C42.3728 25.5742 42.3491 25.578 42.3254 25.5771C42.3017 25.5761 42.2785 25.5703 42.2575 25.5602C41.9076 25.3951 41.5525 25.3619 41.1924 25.4606C41.084 25.489 40.999 25.5488 40.9377 25.6398L40.6 26.1378C40.5448 26.2194 40.466 26.2687 40.3637 26.2858C39.8378 26.3674 39.4818 26.65 39.2956 27.1338C39.2819 27.1704 39.2569 27.2029 39.2233 27.2275C39.1896 27.2521 39.1488 27.268 39.1053 27.2732C38.1783 27.3898 37.9389 28.0529 38.3932 28.7272C38.4484 28.8088 38.4444 28.8885 38.3809 28.9663C38.0402 29.3732 37.6259 29.763 38.0279 30.261C38.0893 30.3369 38.1057 30.4203 38.0771 30.5114C37.9973 30.7694 37.8182 30.9382 37.5399 31.0179C37.4478 31.0445 37.3609 31.034 37.279 30.9866L33.7125 28.9179C33.6579 28.887 33.6188 28.837 33.6038 28.7789C33.5889 28.7208 33.5993 28.6592 33.6327 28.6077C33.8742 28.2359 34.0389 27.8461 34.1269 27.4382C34.132 27.4142 34.1444 27.3919 34.1625 27.3741C34.1807 27.3562 34.2039 27.3434 34.2295 27.3372C34.2551 27.3309 34.2821 27.3315 34.3073 27.3388C34.3326 27.3461 34.3552 27.3599 34.3724 27.3785C34.5402 27.5549 34.84 27.774 35.2717 28.0358C35.9224 28.4313 36.6867 28.2777 36.7174 27.4866C36.745 26.7012 36.0912 26.0439 35.5786 25.5175C35.4859 25.4226 35.4279 25.303 35.413 25.1757C35.3981 25.0484 35.4271 24.92 35.4958 24.809C36.6273 23.003 37.8417 21.4209 39.139 20.0626C39.3559 19.8369 39.6056 19.8388 39.8879 20.0683C39.9043 20.0816 39.9289 20.1167 39.9616 20.1736C40.0823 20.3747 40.0772 20.5739 39.9463 20.7711L38.2674 23.2553C38.2575 23.27 38.252 23.2868 38.2516 23.3041C38.2511 23.3214 38.2557 23.3385 38.2647 23.3536C38.2738 23.3688 38.2871 23.3813 38.3032 23.3901C38.3194 23.3988 38.3377 23.4033 38.3564 23.4033H38.4761C38.495 23.4034 38.5139 23.399 38.531 23.3906C38.5481 23.3822 38.5629 23.3699 38.5743 23.3549L40.1488 21.2321C40.378 20.9229 40.6328 20.9314 40.9131 21.2577C40.9151 21.2596 40.9407 21.3042 40.9898 21.3915C41.0476 21.4911 41.0758 21.6033 41.0715 21.7167C41.0671 21.8302 41.0305 21.9408 40.9653 22.0374L39.6854 23.9325C39.6444 23.9932 39.6567 24.0426 39.7222 24.0805L39.7989 24.126C39.8345 24.1464 39.8772 24.153 39.9179 24.1445C39.9587 24.136 39.9942 24.113 40.0169 24.0805L41.2691 22.3277C41.4656 22.0545 41.6825 22.0725 41.9198 22.3817C41.9239 22.3855 41.9464 22.4377 41.9874 22.5382C42.0416 22.6722 42.0671 22.8088 42.0618 22.9369C42.0564 23.065 42.0204 23.1809 41.9567 23.2752L40.953 24.7634Z" fill="#417AF9"/>
<path d="M42.6336 26.3604L41.9356 25.8212C41.7298 25.6623 41.424 25.6881 41.2526 25.8789L41.119 26.0275C40.9475 26.2183 40.9754 26.5018 41.1811 26.6607L41.8791 27.1999C42.0849 27.3588 42.3907 27.333 42.5621 27.1422L42.6957 26.9936C42.8672 26.8028 42.8393 26.5193 42.6336 26.3604Z" fill="#417AF9"/>
<path d="M41.7814 27.5996L40.6364 26.7583C40.4279 26.605 40.1248 26.6375 39.9595 26.8309L39.8375 26.9736C39.6721 27.167 39.7072 27.448 39.9158 27.6012L41.0608 28.4425C41.2693 28.5958 41.5724 28.5633 41.7377 28.3699L41.8597 28.2272C42.025 28.0338 41.99 27.7529 41.7814 27.5996Z" fill="#417AF9"/>
<path d="M40.8171 28.7353L39.4929 27.7016C39.2595 27.5194 38.911 27.5471 38.7145 27.7634L38.6828 27.7983C38.4863 28.0146 38.5162 28.3378 38.7496 28.52L40.0737 29.5537C40.3071 29.7359 40.6556 29.7082 40.8522 29.4918L40.8838 29.457C41.0803 29.2406 41.0505 28.9175 40.8171 28.7353Z" fill="#417AF9"/>
<path d="M38.6081 30.3428C38.947 30.6064 39.4002 30.623 39.6203 30.3798C39.8404 30.1367 39.7441 29.7258 39.4052 29.4621C39.0663 29.1985 38.6131 29.1819 38.393 29.4251C38.1729 29.6682 38.2692 30.0791 38.6081 30.3428Z" fill="#417AF9"/>
</g>
<defs>
<clipPath id="clip0_9510_273">
<rect x="12" y="6" width="31" height="35" rx="5" fill="white"/>
</clipPath>
</defs>
</svg>
